<svg width="256" height="196" viewBox="0 0 256 196" fill="none" xmlns="http://www.w3.org/2000/svg">
<g filter="url(#filter0_d_5009_75167)">
<path d="M8 14C8 9.58172 11.5817 6 16 6H240C244.418 6 248 9.58172 248 14V178C248 182.418 244.418 186 240 186H16C11.5817 186 8 182.418 8 178V14Z" fill="white"/>
<path d="M16.5 19C16.5 16.5147 18.5147 14.5 21 14.5H235C237.485 14.5 239.5 16.5147 239.5 19V173C239.5 175.485 237.485 177.5 235 177.5H21C18.5147 177.5 16.5 175.485 16.5 173V19Z" fill="#FCFCFC"/>
<path d="M16.5 19C16.5 16.5147 18.5147 14.5 21 14.5H235C237.485 14.5 239.5 16.5147 239.5 19V173C239.5 175.485 237.485 177.5 235 177.5H21C18.5147 177.5 16.5 175.485 16.5 173V19Z" stroke="#F1F1F1"/>
<path d="M83.6063 70V47.2266H83.4891L76.3016 52.1094V46.875L83.5867 41.8164H89.4461V70H83.6063ZM94.4359 75.8789L95.8617 65.0781H101.252L98.3812 75.8789H94.4359ZM115.812 70.4883C109.426 70.4883 105.246 67.1289 104.855 62.2656L104.836 62.0117H110.461L110.5 62.2266C110.754 64.2383 112.746 65.7422 115.793 65.7422C118.82 65.7422 120.773 64.1211 120.773 61.8164V61.7773C120.773 59.082 118.762 57.5977 115.363 57.5977H112.141V53.3984H115.285C118.234 53.3984 120.148 51.8359 120.148 49.5508V49.5117C120.148 47.2266 118.527 45.8594 115.754 45.8594C113 45.8594 111.125 47.2852 110.891 49.4727L110.871 49.6484H105.461L105.48 49.4141C105.871 44.5312 109.836 41.3281 115.754 41.3281C121.828 41.3281 125.734 44.2969 125.734 48.7305V48.7695C125.734 52.2852 123.156 54.5703 119.855 55.2539V55.3711C124.035 55.7617 126.77 58.1836 126.77 62.0117V62.0508C126.77 67.0898 122.395 70.4883 115.812 70.4883ZM141.916 70.4883C135.197 70.4883 130.548 67.1484 130.548 62.3047V62.2656C130.548 58.6133 133.263 55.918 137.052 55.1758V55.0586C133.791 54.2578 131.584 51.8945 131.584 48.8867V48.8477C131.584 44.4922 135.822 41.3281 141.916 41.3281C147.99 41.3281 152.248 44.4922 152.248 48.8477V48.8867C152.248 51.8945 150.021 54.2578 146.779 55.0586V55.1758C150.548 55.918 153.263 58.6133 153.263 62.2656V62.3047C153.263 67.1484 148.634 70.4883 141.916 70.4883ZM141.916 53.2812C144.572 53.2812 146.408 51.6992 146.408 49.4336V49.3945C146.408 47.1484 144.552 45.5859 141.916 45.5859C139.279 45.5859 137.404 47.1484 137.404 49.3945V49.4336C137.404 51.6992 139.259 53.2812 141.916 53.2812ZM141.916 66.1914C144.982 66.1914 147.15 64.3945 147.15 61.9141V61.875C147.15 59.375 145.021 57.5586 141.916 57.5586C138.81 57.5586 136.662 59.375 136.662 61.875V61.9141C136.662 64.3945 138.83 66.1914 141.916 66.1914ZM168.312 70.4883C161.163 70.4883 156.827 64.8828 156.827 55.918V55.8789C156.827 46.9141 161.163 41.3281 168.312 41.3281C175.46 41.3281 179.796 46.9141 179.796 55.8789V55.918C179.796 64.8828 175.46 70.4883 168.312 70.4883ZM168.312 65.7617C171.827 65.7617 173.839 62.1094 173.839 55.918V55.8789C173.839 49.6875 171.827 46.0547 168.312 46.0547C164.796 46.0547 162.784 49.6875 162.784 55.8789V55.918C162.784 62.1094 164.796 65.7617 168.312 65.7617Z" fill="#202020"/>
<path d="M94.4766 94.2051C92.3555 94.2051 91.0488 92.9453 91.0488 91.0879V85.5449H92.3613V90.9883C92.3613 92.2129 93.1289 93.0449 94.4766 93.0449C95.8242 93.0449 96.5859 92.2129 96.5859 90.9883V85.5449H97.8984V91.0879C97.8984 92.9453 96.6035 94.2051 94.4766 94.2051ZM99.8672 94V87.6367H101.139V88.5977H101.232C101.461 87.9238 102.053 87.5254 102.902 87.5254C103.107 87.5254 103.33 87.5547 103.459 87.584V88.7559C103.23 88.709 103.014 88.6797 102.773 88.6797C101.801 88.6797 101.139 89.2773 101.139 90.1973V94H99.8672ZM107.197 96.2441C105.58 96.2441 104.584 95.5352 104.432 94.4746L104.443 94.4629H105.727L105.732 94.4746C105.838 94.9141 106.354 95.2246 107.215 95.2246C108.264 95.2246 108.885 94.7324 108.885 93.8652V92.6113H108.791C108.404 93.3027 107.701 93.6895 106.828 93.6895C105.193 93.6895 104.186 92.4297 104.186 90.6367V90.625C104.186 88.8086 105.199 87.5254 106.852 87.5254C107.742 87.5254 108.434 87.9648 108.803 88.6797H108.879V87.6367H110.145V93.8711C110.145 95.3184 109.002 96.2441 107.197 96.2441ZM107.18 92.6406C108.258 92.6406 108.908 91.8203 108.908 90.6309V90.6191C108.908 89.4355 108.252 88.6035 107.18 88.6035C106.096 88.6035 105.486 89.4355 105.486 90.6191V90.6309C105.486 91.8145 106.096 92.6406 107.18 92.6406ZM114.645 94.123C112.781 94.123 111.656 92.8516 111.656 90.8359V90.8301C111.656 88.8438 112.805 87.5137 114.58 87.5137C116.355 87.5137 117.445 88.7969 117.445 90.707V91.1523H112.934C112.957 92.3711 113.625 93.0801 114.674 93.0801C115.488 93.0801 115.975 92.6758 116.127 92.3477L116.15 92.3008L117.375 92.2949L117.363 92.3477C117.152 93.1855 116.273 94.123 114.645 94.123ZM114.586 88.5566C113.719 88.5566 113.062 89.1484 112.951 90.2441H116.186C116.086 89.1074 115.447 88.5566 114.586 88.5566ZM118.957 94V87.6367H120.229V88.6035H120.322C120.633 87.9238 121.242 87.5137 122.168 87.5137C123.592 87.5137 124.377 88.3633 124.377 89.8809V94H123.111V90.1797C123.111 89.125 122.672 88.6035 121.74 88.6035C120.809 88.6035 120.229 89.2422 120.229 90.2676V94H118.957ZM128.555 94.041C127.154 94.041 126.58 93.5488 126.58 92.3242V88.6387H125.584V87.6367H126.58V86.0312H127.875V87.6367H129.24V88.6387H127.875V92.0195C127.875 92.7051 128.133 92.9863 128.76 92.9863C128.953 92.9863 129.064 92.9805 129.24 92.9629V93.9766C129.035 94.0117 128.801 94.041 128.555 94.041ZM136.295 94V86.6758H133.635V85.5449H140.262V86.6758H137.607V94H136.295ZM142.277 94.1055C141.064 94.1055 140.168 93.3672 140.168 92.2129V92.2012C140.168 91.0645 141.023 90.4023 142.541 90.3086L144.264 90.209V89.6465C144.264 88.9492 143.824 88.5625 142.963 88.5625C142.26 88.5625 141.797 88.8203 141.645 89.2715L141.639 89.2949H140.414L140.42 89.2539C140.572 88.2109 141.574 87.5137 143.021 87.5137C144.621 87.5137 145.523 88.3105 145.523 89.6465V94H144.264V93.0977H144.164C143.789 93.7422 143.121 94.1055 142.277 94.1055ZM141.434 92.1602C141.434 92.7461 141.932 93.0918 142.617 93.0918C143.566 93.0918 144.264 92.4707 144.264 91.6504V91.1055L142.711 91.2051C141.832 91.2578 141.434 91.5742 141.434 92.1484V92.1602ZM149.631 94.123C148.096 94.123 147.123 93.4023 147 92.3359V92.3301H148.271L148.277 92.3359C148.436 92.8164 148.898 93.1387 149.654 93.1387C150.439 93.1387 150.984 92.7812 150.984 92.2598V92.248C150.984 91.8496 150.686 91.5801 149.947 91.4102L148.934 91.1758C147.732 90.9004 147.176 90.3555 147.176 89.4238V89.418C147.176 88.3105 148.207 87.5137 149.648 87.5137C151.102 87.5137 152.033 88.2402 152.145 89.2773V89.2832H150.932V89.2715C150.809 88.8262 150.357 88.4922 149.643 88.4922C148.945 88.4922 148.441 88.8379 148.441 89.3477V89.3594C148.441 89.7578 148.734 90.0039 149.449 90.1738L150.457 90.4023C151.682 90.6895 152.268 91.2109 152.268 92.1309V92.1426C152.268 93.3203 151.143 94.123 149.631 94.123ZM153.844 94V85.1406H155.115V90.3203H155.209L157.734 87.6367H159.223L156.568 90.3203L159.398 94H157.852L155.66 91.1406L155.115 91.6855V94H153.844ZM162.627 94.123C161.092 94.123 160.119 93.4023 159.996 92.3359V92.3301H161.268L161.273 92.3359C161.432 92.8164 161.895 93.1387 162.65 93.1387C163.436 93.1387 163.98 92.7812 163.98 92.2598V92.248C163.98 91.8496 163.682 91.5801 162.943 91.4102L161.93 91.1758C160.729 90.9004 160.172 90.3555 160.172 89.4238V89.418C160.172 88.3105 161.203 87.5137 162.645 87.5137C164.098 87.5137 165.029 88.2402 165.141 89.2773V89.2832H163.928V89.2715C163.805 88.8262 163.354 88.4922 162.639 88.4922C161.941 88.4922 161.438 88.8379 161.438 89.3477V89.3594C161.438 89.7578 161.73 90.0039 162.445 90.1738L163.453 90.4023C164.678 90.6895 165.264 91.2109 165.264 92.1309V92.1426C165.264 93.3203 164.139 94.123 162.627 94.123Z" fill="#646464"/>
</g>
<defs>
<filter id="filter0_d_5009_75167" x="0" y="0" width="256" height="196" filterUnits="userSpaceOnUse" color-interpolation-filters="sRGB">
<feFlood flood-opacity="0" result="BackgroundImageFix"/>
<feColorMatrix in="SourceAlpha" type="matrix" values="0 0 0 0 0 0 0 0 0 0 0 0 0 0 0 0 0 0 127 0" result="hardAlpha"/>
<feOffset dy="2"/>
<feGaussianBlur stdDeviation="4"/>
<feColorMatrix type="matrix" values="0 0 0 0 0 0 0 0 0 0 0 0 0 0 0 0 0 0 0.08 0"/>
<feBlend mode="normal" in2="BackgroundImageFix" result="effect1_dropShadow_5009_75167"/>
<feBlend mode="normal" in="SourceGraphic" in2="effect1_dropShadow_5009_75167" result="shape"/>
</filter>
</defs>
</svg>
