<svg width="33" height="31" viewBox="0 0 33 31" fill="none" xmlns="http://www.w3.org/2000/svg">
<path d="M28.7695 0.0292969H4.76953C2.56039 0.0292969 0.769531 1.82016 0.769531 4.0293V26.0293C0.769531 28.2384 2.56039 30.0293 4.76953 30.0293H28.7695C30.9787 30.0293 32.7695 28.2384 32.7695 26.0293V4.0293C32.7695 1.82016 30.9787 0.0292969 28.7695 0.0292969Z" fill="#2F3990"/>
<path d="M10.6475 23.0263C10.1501 23.0257 9.6733 22.8279 9.32159 22.4762C8.96989 22.1245 8.77201 21.6477 8.77148 21.1503V10.1503C8.77201 9.65298 8.96992 9.17622 9.32166 8.82468C9.67339 8.47313 10.1502 8.27553 10.6475 8.27527H11.3975V7.02527H12.6485V8.27527H20.8995V7.02527H22.1495V8.27527H22.8995C23.3968 8.27553 23.8737 8.47313 24.2254 8.82468C24.5771 9.17622 24.775 9.65298 24.7755 10.1503V21.1503C24.775 21.6477 24.5772 22.1245 24.2255 22.4762C23.8738 22.8279 23.3969 23.0257 22.8995 23.0263H10.6475ZM10.0225 21.1503C10.0225 21.3161 10.0883 21.4752 10.2055 21.5926C10.3227 21.7099 10.4817 21.776 10.6475 21.7763H22.8995C23.0654 21.776 23.2243 21.7099 23.3415 21.5926C23.4587 21.4752 23.5245 21.3161 23.5245 21.1503V12.8993H10.0245L10.0225 21.1503ZM10.0225 10.1503V11.6503H23.5225V10.1503C23.5223 9.98459 23.4563 9.82577 23.3392 9.70862C23.222 9.59147 23.0632 9.52553 22.8975 9.52527H22.1475V10.7743H20.8995V9.52527H12.6485V10.7743H11.3995V9.52527H10.6495C10.5673 9.52514 10.4859 9.5412 10.4099 9.57254C10.3339 9.60388 10.2648 9.64988 10.2065 9.70792C10.1483 9.76595 10.1021 9.8349 10.0706 9.9108C10.039 9.9867 10.0227 10.0681 10.0225 10.1503ZM18.6495 20.4593V19.2093H19.8995V20.4593H18.6495ZM16.1495 20.4593V19.2093H17.3995V20.4593H16.1495ZM13.6495 20.4593V19.2093H14.8995V20.4593H13.6495ZM11.1495 20.4593V19.2093H12.3995V20.4593H11.1495ZM21.1495 17.9593V16.7093H22.3995V17.9583L21.1495 17.9593ZM18.6495 17.9593V16.7093H19.8995V17.9583L18.6495 17.9593ZM16.1495 17.9593V16.7093H17.3995V17.9583L16.1495 17.9593ZM13.6495 17.9593V16.7093H14.8995V17.9583L13.6495 17.9593ZM11.1495 17.9593V16.7093H12.3995V17.9583L11.1495 17.9593ZM21.1495 15.4593V14.2093H22.3995V15.4593H21.1495ZM18.6495 15.4593V14.2093H19.8995V15.4593H18.6495ZM16.1495 15.4593V14.2093H17.3995V15.4593H16.1495ZM13.6495 15.4593V14.2093H14.8995V15.4593H13.6495ZM11.1495 15.4593V14.2093H12.3995V15.4593H11.1495Z" fill="white"/>
</svg>
