<svg width="24" height="24" viewBox="0 0 24 24" fill="none" xmlns="http://www.w3.org/2000/svg">
<path d="M12 23.5C18.3513 23.5 23.5 18.3513 23.5 12C23.5 5.64873 18.3513 0.5 12 0.5C5.64873 0.5 0.5 5.64873 0.5 12C0.5 18.3513 5.64873 23.5 12 23.5Z" fill="white" stroke="#DFE1E6"/>
<path d="M13.1327 16.7121C12.9408 16.904 12.703 17 12.4193 17C12.1356 17 11.8978 16.904 11.7059 16.7121L7.30038 12.3066C7.20859 12.2149 7.13567 12.1064 7.0816 11.9812C7.0272 11.8561 7 11.7226 7 11.5807V8.00125C7 7.72591 7.09812 7.49011 7.29437 7.29387C7.49028 7.09796 7.72591 7 8.00125 7H11.5807C11.7226 7 11.8561 7.02703 11.9812 7.0811C12.1064 7.1355 12.2149 7.20859 12.3066 7.30038L16.7121 11.7184C16.904 11.9103 17 12.1459 17 12.4253C17 12.705 16.904 12.9408 16.7121 13.1327L13.1327 16.7121ZM12.4193 16.0113L15.9987 12.4318L11.5807 8.00125H8.00125V11.5807L12.4193 16.0113ZM9.25282 10.0038C9.46141 10.0038 9.63863 9.93066 9.78448 9.78448C9.93066 9.63863 10.0038 9.46141 10.0038 9.25282C10.0038 9.04422 9.93066 8.867 9.78448 8.72115C9.63863 8.57497 9.46141 8.50188 9.25282 8.50188C9.04422 8.50188 8.867 8.57497 8.72115 8.72115C8.57497 8.867 8.50188 9.04422 8.50188 9.25282C8.50188 9.46141 8.57497 9.63863 8.72115 9.78448C8.867 9.93066 9.04422 10.0038 9.25282 10.0038Z" fill="#818181"/>
</svg>
