<svg width="16" height="16" viewBox="0 0 16 16" fill="none" xmlns="http://www.w3.org/2000/svg">
<g id="Vector">
<path d="M3.4378 1.70596C3.4378 1.30968 3.43405 0.967147 3.4378 0.625242C3.4428 0.254586 3.66532 0.00643922 3.9891 0.000188679C4.32538 -0.00793702 4.5604 0.247085 4.56727 0.631493C4.57227 0.964647 4.57352 1.2978 4.57727 1.63158C4.57727 1.64033 4.58727 1.64908 4.60728 1.68221H11.4391C11.4391 1.30718 11.4316 0.929018 11.4391 0.548986C11.444 0.419132 11.4938 0.29499 11.5799 0.197649C11.6659 0.100308 11.7831 0.0357721 11.9114 0.0150062C12.0396 -0.00575967 12.1711 0.018525 12.2835 0.0837339C12.396 0.148943 12.4823 0.251054 12.528 0.37272C12.5558 0.472324 12.568 0.575644 12.5642 0.678996C12.5686 1.00902 12.5642 1.33968 12.5642 1.70721C13.0836 1.70721 13.5699 1.69908 14.0562 1.71096C14.2951 1.70876 14.5333 1.73584 14.7656 1.79159C15.5095 1.99724 15.9964 2.65604 15.997 3.44048C15.9995 7.05371 15.9995 10.6671 15.997 14.2808C15.999 14.5078 15.9556 14.733 15.8693 14.943C15.783 15.153 15.6555 15.3437 15.4944 15.5037C15.3333 15.6637 15.1418 15.7898 14.9312 15.8747C14.7206 15.9595 14.4951 16.0014 14.2681 15.9978C10.0919 16.0007 5.91593 16.0007 1.74015 15.9978C0.740069 15.9978 0 15.2434 0 14.2283C0 10.6667 0 7.10538 0 3.54424C0 2.44477 0.702561 1.73159 1.80578 1.70846C2.33833 1.69783 2.86775 1.70596 3.4378 1.70596ZM14.8544 6.88203H1.13698V7.23394C1.13698 9.50413 1.13698 11.7752 1.13698 14.047C1.13698 14.6783 1.32449 14.8658 1.95642 14.8658H14.0468C14.6813 14.8658 14.8682 14.6783 14.8682 14.0483C14.8682 11.7681 14.8682 9.48767 14.8682 7.20706C14.8688 7.10268 14.86 7.00142 14.8544 6.88203ZM4.56852 2.87231C4.56852 3.23547 4.56852 3.56674 4.56852 3.89802C4.5654 4.31681 4.34788 4.56558 3.99472 4.56058C3.65407 4.5562 3.44217 4.31056 3.43905 3.91115C3.43905 3.57112 3.43905 3.23109 3.43905 2.86293C2.86087 2.86293 2.32145 2.85918 1.78203 2.86293C1.36574 2.86731 1.15197 3.07733 1.14072 3.49861C1.13135 3.86302 1.14072 4.22805 1.14072 4.59246V5.67818H14.8644C14.8644 4.90311 14.8738 4.15492 14.8594 3.40736C14.8544 3.14796 14.7044 2.90731 14.4431 2.89044C13.8262 2.85481 13.2055 2.87919 12.568 2.87919C12.568 3.24672 12.568 3.57862 12.568 3.91052C12.5642 4.31118 12.3529 4.55558 12.0123 4.56058C11.6591 4.56558 11.441 4.31681 11.4379 3.89865C11.4379 3.55924 11.4379 3.21921 11.4379 2.87231H4.56852Z" fill="#898989"/>
<path d="M3.99248 9.12856C3.79559 9.12856 3.59808 9.13793 3.40118 9.12856C3.33104 9.12831 3.26164 9.11419 3.19699 9.08698C3.13234 9.05978 3.07371 9.02005 3.02449 8.97007C2.97527 8.9201 2.93643 8.86087 2.91022 8.79581C2.88401 8.73075 2.87094 8.66115 2.87177 8.59101C2.86364 8.29223 3.0649 8.02846 3.36055 8.01033C3.78497 7.98783 4.21125 7.98908 4.63566 8.01033C4.93194 8.02409 5.13571 8.28536 5.13571 8.58226C5.13787 8.65237 5.12612 8.72221 5.10112 8.78774C5.07612 8.85328 5.03838 8.91321 4.99008 8.96406C4.94178 9.01492 4.88388 9.05571 4.81972 9.08405C4.75556 9.11239 4.68641 9.12773 4.61628 9.12918C4.40814 9.13856 4.2 9.12793 3.99248 9.12856Z" fill="#898989"/>
<path d="M7.99763 9.12898C7.80012 9.12898 7.60259 9.1371 7.40633 9.12898C7.08942 9.1121 6.88254 8.89958 6.87191 8.59643C6.86128 8.29328 7.07318 8.02076 7.3857 8.00638C7.78949 7.98826 8.19827 7.99076 8.59893 8.00638C8.67179 8.00789 8.74361 8.02395 8.81018 8.05362C8.87675 8.08328 8.93672 8.12594 8.98656 8.17911C9.03641 8.23227 9.07513 8.29486 9.10044 8.3632C9.12576 8.43154 9.13716 8.50425 9.13398 8.57705C9.13398 8.89458 8.92083 9.1146 8.58893 9.13085C8.39204 9.1371 8.19452 9.1296 7.99763 9.12898Z" fill="#898989"/>
<path d="M11.9795 9.12849C11.7826 9.12849 11.5851 9.13849 11.3888 9.12537C11.3187 9.1236 11.2496 9.10793 11.1855 9.07929C11.1215 9.05065 11.0638 9.00959 11.0157 8.9585C10.9676 8.90741 10.9302 8.84729 10.9055 8.78162C10.8808 8.71596 10.8694 8.64605 10.8719 8.57594C10.8719 8.27967 11.0769 8.02027 11.3719 8.00652C11.7857 7.98652 12.202 7.98714 12.6158 8.00652C12.9283 8.01965 13.1421 8.28217 13.1327 8.59407C13.1233 8.90597 12.9164 9.11162 12.6001 9.12849C12.3951 9.13787 12.187 9.12912 11.9795 9.12849Z" fill="#898989"/>
<path d="M4.01875 10.2936C4.20626 10.2936 4.39378 10.2849 4.5813 10.2936C4.91382 10.313 5.11509 10.5067 5.13322 10.8093C5.15197 11.1218 4.95757 11.3956 4.6388 11.4162C4.2142 11.4437 3.78828 11.4437 3.36369 11.4162C3.05617 11.3962 2.86365 11.1381 2.87178 10.8368C2.8799 10.5355 3.07554 10.3192 3.39869 10.2974C3.60496 10.283 3.8131 10.2974 4.02375 10.2974L4.01875 10.2936Z" fill="#898989"/>
<path d="M8.03308 10.2947C8.2206 10.2947 8.40812 10.2847 8.59563 10.2947C8.92504 10.3159 9.12318 10.5153 9.13693 10.8203C9.15068 11.1254 8.96442 11.3904 8.66127 11.4122C8.22654 11.4423 7.79026 11.4423 7.35553 11.4122C7.0505 11.3916 6.86423 11.1254 6.87548 10.8241C6.88673 10.5228 7.08488 10.3153 7.41303 10.2947C7.6168 10.284 7.82556 10.2947 8.03308 10.2947Z" fill="#898989"/>
<path d="M12.0267 10.2942C12.2142 10.2942 12.4018 10.2848 12.5893 10.2942C12.9206 10.3148 13.1199 10.5111 13.135 10.8155C13.15 11.1199 12.9531 11.398 12.6349 11.4174C12.2105 11.4439 11.7847 11.4428 11.3604 11.4143C11.0535 11.393 10.8654 11.1311 10.8754 10.8298C10.8854 10.5286 11.0823 10.3173 11.4079 10.296C11.6148 10.2823 11.823 10.296 12.033 10.296L12.0267 10.2942Z" fill="#898989"/>
<path d="M3.99701 13.7014C3.80011 13.7014 3.60259 13.7114 3.40633 13.6983C3.08067 13.677 2.88191 13.4714 2.87191 13.1657C2.86191 12.8601 3.0488 12.6032 3.35508 12.5807C3.78979 12.5504 4.2261 12.5504 4.66081 12.5807C4.96459 12.6026 5.14773 12.8726 5.13335 13.1751C5.11897 13.4776 4.91833 13.6751 4.5883 13.6977C4.39204 13.7114 4.19452 13.7014 3.99701 13.7014Z" fill="#898989"/>
<path d="M7.99187 13.7001C7.79498 13.7001 7.59684 13.7113 7.40057 13.7001C7.07742 13.6776 6.8799 13.4694 6.87178 13.1631C6.86365 12.8569 7.05367 12.6006 7.36119 12.5818C7.78577 12.554 8.21172 12.554 8.6363 12.5818C8.95508 12.6018 9.15072 12.8725 9.13635 13.1869C9.11947 13.4907 8.91945 13.6869 8.5863 13.7044C8.39003 13.7157 8.19251 13.7044 7.995 13.7044L7.99187 13.7001Z" fill="#898989"/>
<path d="M11.9996 13.7014C11.8021 13.7014 11.6045 13.7114 11.4083 13.7014C11.0807 13.6795 10.8832 13.4763 10.872 13.1707C10.8607 12.865 11.0595 12.5956 11.3839 12.5769C11.7984 12.5522 12.2139 12.5522 12.6284 12.5769C12.9478 12.5969 13.1472 12.8632 13.1334 13.1763C13.1197 13.4895 12.9209 13.6801 12.5909 13.7007C12.394 13.7114 12.1965 13.7014 11.9996 13.7014Z" fill="#898989"/>
</g>
</svg>
