<svg width="18" height="17" viewBox="0 0 18 17" fill="none" xmlns="http://www.w3.org/2000/svg">
<path id="Vector" d="M1.00186 4.44854C0.975509 3.77055 1.22894 3.07945 1.80607 2.51321C2.25335 2.0762 2.68434 1.61921 3.1542 1.20904C3.81226 0.636561 4.61524 0.627828 5.25009 1.21654C6.03613 1.94635 6.79328 2.70923 7.53038 3.48898C8.07302 4.06334 8.08495 4.83936 7.57305 5.44681C7.20481 5.88381 6.7845 6.27837 6.37235 6.67605C6.22807 6.81464 6.20362 6.91952 6.29834 7.0987C6.89869 8.23929 7.73113 9.19884 8.69846 10.0329C9.29442 10.5461 9.97695 10.9593 10.6168 11.4226C10.822 11.5705 10.9681 11.5512 11.1469 11.3564C11.4844 10.9887 11.8439 10.6378 12.2134 10.3013C12.8777 9.69889 13.702 9.68703 14.3544 10.3013C15.0984 11.0018 15.8225 11.7227 16.5268 12.4639C17.1541 13.1288 17.1541 13.9816 16.5481 14.6565C16.1021 15.1509 15.6366 15.6316 15.1505 16.0873C14.5068 16.691 13.7164 16.8465 12.8551 16.7516C11.5114 16.6036 10.3006 16.0811 9.13884 15.4374C6.00223 13.7 3.6247 11.2234 2.00245 8.04136C1.44978 6.95508 1.01691 5.81762 1.00186 4.44854ZM13.2817 15.9718C13.5488 15.9856 13.8157 15.9408 14.0635 15.8406C14.3113 15.7404 14.534 15.5872 14.7157 15.3919C15.0789 15.0173 15.4453 14.6477 15.8098 14.275C16.2953 13.7799 16.301 13.3922 15.8167 12.9053C15.1894 12.2772 14.5608 11.6529 13.931 11.0324C13.4542 10.561 13.101 10.561 12.6136 11.0324C12.2328 11.4038 11.8608 11.7815 11.4806 12.1561C11.167 12.4683 10.906 12.5226 10.5265 12.296C9.91987 11.9333 9.29253 11.588 8.74426 11.1485C7.39238 10.0653 6.21113 8.82361 5.46148 7.23352C5.25258 6.7909 5.30592 6.57052 5.65785 6.23465C6.04177 5.86631 6.42944 5.50174 6.79705 5.1178C7.22613 4.66893 7.21862 4.31369 6.78201 3.87231C6.13628 3.22054 5.48595 2.57315 4.83103 1.93013C4.38814 1.49312 4.00046 1.49686 3.55381 1.93013C3.18683 2.28535 2.83867 2.66056 2.46353 3.00704C1.94662 3.48463 1.77345 4.06835 1.82175 4.75508C1.89954 5.83387 2.28286 6.81961 2.77343 7.76168C4.4628 11.008 6.93633 13.4772 10.2386 15.1016C11.2002 15.5704 12.1952 15.9338 13.2817 15.9718Z" fill="#898989" stroke="#898989" stroke-width="0.4"/>
</svg>
