<svg width="30" height="30" viewBox="0 0 30 30" fill="none" xmlns="http://www.w3.org/2000/svg">
<g id="Group 40152">
<g id="Group 40125">
<g id="Group 40183">
<rect id="Rectangle 1866" width="30" height="30" rx="3" fill="#40BC86"/>
<g id="Group 40182">
<path id="Vector" d="M15.0018 24.9899C13.2975 24.9899 11.5933 25.0065 9.88912 24.9855C7.45166 24.9566 5.58402 23.4124 5.09024 21.0308C5.03045 20.7017 5.0038 20.3673 5.01071 20.0328C5.00546 16.6672 4.99847 13.3033 5.01071 9.93687C5.02032 7.45833 6.58382 5.55836 8.99769 5.07419C9.31332 5.0195 9.63354 4.99579 9.95379 5.0034C13.3185 4.99903 16.6832 4.98941 20.0488 5.0034C22.5387 5.01389 24.4273 6.56603 24.9203 8.97989C24.973 9.26606 24.997 9.55678 24.9919 9.84773C24.9972 13.271 25.0111 16.6943 24.9919 20.1176C24.9771 22.5454 23.4092 24.4218 21.0277 24.9077C20.6547 24.9703 20.2766 24.9967 19.8985 24.9864C18.2651 24.9951 16.6334 24.9907 15.0018 24.9899ZM23.5988 15.032C23.5988 13.3864 23.5988 11.7407 23.5945 10.0951C23.6042 9.76089 23.5764 9.42669 23.5114 9.09875C23.1321 7.4627 21.8238 6.41221 20.1074 6.40347C16.699 6.38687 13.2905 6.39735 9.88213 6.40347C9.62037 6.40004 9.35909 6.42673 9.10343 6.483C7.46914 6.86842 6.41602 8.1776 6.40816 9.89142C6.3933 13.2998 6.40204 16.7083 6.40816 20.1167C6.40517 20.3784 6.43185 20.6397 6.48769 20.8954C6.8731 22.5288 8.17704 23.5819 9.89611 23.5907C13.3045 23.609 16.713 23.5976 20.1214 23.5907C20.3829 23.5938 20.6439 23.5668 20.8992 23.5103C22.5352 23.1231 23.577 21.8183 23.5953 20.1018C23.6102 18.4116 23.598 16.7214 23.5988 15.032Z" fill="white"/>
<path id="Vector_2" d="M14.9626 15.7769C15.9458 14.7902 16.8504 13.8839 17.7549 12.9802C17.8327 12.8937 17.9168 12.813 18.0066 12.739C18.3195 12.5092 18.6341 12.5258 18.9216 12.7783C19.169 12.9951 19.1961 13.4137 18.9933 13.6925C18.9309 13.7735 18.8619 13.8492 18.787 13.9188C17.7383 14.9676 16.6875 16.0181 15.6347 17.0703C15.1654 17.5379 14.8394 17.5379 14.3727 17.0703C13.3199 16.0216 12.2711 14.9702 11.2265 13.9162C11.0971 13.786 10.9582 13.6296 10.911 13.4609C10.8236 13.1428 10.911 12.8491 11.2212 12.6743C11.5315 12.4995 11.8382 12.5642 12.0952 12.8203C12.9394 13.6645 13.7842 14.5093 14.6296 15.3548C14.7476 15.4898 14.8587 15.6307 14.9626 15.7769Z" fill="white"/>
</g>
</g>
</g>
</g>
</svg>
