<svg width="30" height="31" viewBox="0 0 30 31" fill="none" xmlns="http://www.w3.org/2000/svg">
<g id="Group 40154">
<g id="Group 40128">
<g id="Group 40193">
<rect id="Rectangle 1866" y="0.5" width="30" height="30" rx="3" fill="#FCB410"/>
<g id="Group 40192">
<path id="Vector" d="M9.86752 8.41921C9.86752 7.97339 9.8633 7.58804 9.86752 7.2034C9.87315 6.78641 10.1235 6.50724 10.4877 6.50021C10.866 6.49107 11.1304 6.77797 11.1382 7.21043C11.1438 7.58523 11.1452 7.96003 11.1494 8.33553C11.1494 8.34537 11.1607 8.35522 11.1832 8.39248H18.869C18.869 7.97057 18.8606 7.54515 18.869 7.11761C18.8745 6.97152 18.9305 6.83186 19.0273 6.72235C19.1242 6.61285 19.256 6.54024 19.4003 6.51688C19.5446 6.49352 19.6925 6.52084 19.819 6.5942C19.9454 6.66756 20.0426 6.78244 20.0939 6.91931C20.1253 7.03136 20.139 7.1476 20.1347 7.26387C20.1397 7.63515 20.1347 8.00714 20.1347 8.42061C20.7191 8.42061 21.2662 8.41147 21.8132 8.42483C22.082 8.42235 22.35 8.45282 22.6113 8.51554C23.4481 8.74689 23.9959 9.48805 23.9966 10.3705C23.9994 14.4354 23.9994 18.5005 23.9966 22.5659C23.9989 22.8213 23.9501 23.0746 23.853 23.3109C23.7558 23.5472 23.6125 23.7616 23.4312 23.9416C23.25 24.1216 23.0345 24.2635 22.7976 24.359C22.5607 24.4545 22.307 24.5016 22.0516 24.4975C17.3534 24.5008 12.6554 24.5008 7.95767 24.4975C6.83258 24.4975 6 23.6488 6 22.5068C6 18.5001 6 14.4936 6 10.4873C6 9.25037 6.79038 8.44804 8.0315 8.42202C8.63062 8.41006 9.22621 8.41921 9.86752 8.41921ZM22.7112 14.2423H7.2791V14.6382C7.2791 17.1921 7.2791 19.7471 7.2791 22.3029C7.2791 23.0131 7.49005 23.2241 8.20097 23.2241H21.8027C22.5164 23.2241 22.7267 23.0131 22.7267 22.3043C22.7267 19.7391 22.7267 17.1736 22.7267 14.6079C22.7274 14.4905 22.7175 14.3766 22.7112 14.2423ZM11.1396 9.73135C11.1396 10.1399 11.1396 10.5126 11.1396 10.8853C11.1361 11.3564 10.8914 11.6363 10.4941 11.6307C10.1108 11.6257 9.87244 11.3494 9.86893 10.9C9.86893 10.5175 9.86893 10.135 9.86893 9.7208C9.21848 9.7208 8.61163 9.71658 8.00478 9.7208C7.53646 9.72572 7.29597 9.96199 7.28331 10.4359C7.27277 10.8459 7.28331 11.2566 7.28331 11.6665V12.8879H22.7225C22.7225 12.016 22.733 11.1743 22.7168 10.3333C22.7112 10.0415 22.5424 9.77073 22.2485 9.75174C21.5545 9.71166 20.8562 9.73908 20.139 9.73908C20.139 10.1526 20.139 10.5259 20.139 10.8993C20.1347 11.3501 19.8971 11.625 19.5138 11.6307C19.1165 11.6363 18.8711 11.3564 18.8676 10.886C18.8676 10.5041 18.8676 10.1216 18.8676 9.73135H11.1396Z" fill="white"/>
<path id="Vector_2" d="M10.4915 16.7686C10.27 16.7686 10.0478 16.7792 9.82633 16.7686C9.74742 16.7684 9.66935 16.7525 9.59661 16.7219C9.52388 16.6913 9.45792 16.6466 9.40255 16.5904C9.34718 16.5341 9.30349 16.4675 9.274 16.3943C9.24451 16.3211 9.22981 16.2428 9.23074 16.1639C9.22159 15.8278 9.44802 15.531 9.78062 15.5106C10.2581 15.4853 10.7377 15.4867 11.2151 15.5106C11.5484 15.5261 11.7777 15.8201 11.7777 16.1541C11.7801 16.2329 11.7669 16.3115 11.7388 16.3852C11.7106 16.459 11.6682 16.5264 11.6138 16.5836C11.5595 16.6408 11.4944 16.6867 11.4222 16.7186C11.35 16.7505 11.2722 16.7677 11.1933 16.7694C10.9592 16.7799 10.725 16.7679 10.4915 16.7686Z" fill="white"/>
<path id="Vector_3" d="M14.9973 16.7694C14.7751 16.7694 14.5529 16.7785 14.3321 16.7694C13.9756 16.7504 13.7429 16.5113 13.7309 16.1703C13.7189 15.8292 13.9573 15.5226 14.3089 15.5064C14.7632 15.4861 15.2231 15.4889 15.6738 15.5064C15.7558 15.5081 15.8366 15.5262 15.9115 15.5596C15.9863 15.593 16.0538 15.641 16.1099 15.7008C16.166 15.7606 16.2095 15.831 16.238 15.9079C16.2665 15.9847 16.2793 16.0665 16.2757 16.1485C16.2757 16.5057 16.0359 16.7532 15.6625 16.7715C15.441 16.7785 15.2188 16.7701 14.9973 16.7694Z" fill="white"/>
<path id="Vector_4" d="M19.4769 16.7691C19.2554 16.7691 19.0332 16.7803 18.8124 16.7656C18.7335 16.7636 18.6558 16.7459 18.5837 16.7137C18.5117 16.6815 18.4467 16.6353 18.3927 16.5778C18.3386 16.5203 18.2964 16.4527 18.2687 16.3788C18.2409 16.305 18.228 16.2263 18.2308 16.1474C18.2308 15.8141 18.4615 15.5223 18.7934 15.5068C19.2589 15.4843 19.7272 15.485 20.1927 15.5068C20.5443 15.5216 20.7848 15.817 20.7743 16.1678C20.7637 16.5187 20.531 16.7501 20.1752 16.7691C19.9445 16.7796 19.7103 16.7698 19.4769 16.7691Z" fill="white"/>
<path id="Vector_5" d="M10.5211 18.0805C10.732 18.0805 10.943 18.0707 11.154 18.0805C11.5281 18.1023 11.7545 18.3203 11.7749 18.6607C11.796 19.0123 11.5773 19.3203 11.2186 19.3435C10.741 19.3744 10.2618 19.3744 9.78415 19.3435C9.43819 19.321 9.22161 19.0306 9.23075 18.6916C9.23989 18.3527 9.45998 18.1094 9.82353 18.0848C10.0556 18.0686 10.2897 18.0848 10.5267 18.0848L10.5211 18.0805Z" fill="white"/>
<path id="Vector_6" d="M15.0372 18.0815C15.2482 18.0815 15.4591 18.0702 15.6701 18.0815C16.0407 18.1054 16.2636 18.3297 16.279 18.6729C16.2945 19.016 16.085 19.3142 15.7439 19.3388C15.2549 19.3725 14.764 19.3725 14.275 19.3388C13.9318 19.3156 13.7223 19.016 13.7349 18.6771C13.7476 18.3381 13.9705 18.1047 14.3397 18.0815C14.5689 18.0695 14.8038 18.0815 15.0372 18.0815Z" fill="white"/>
<path id="Vector_7" d="M19.5301 18.0809C19.741 18.0809 19.952 18.0704 20.1629 18.0809C20.5356 18.1041 20.7599 18.3249 20.7768 18.6674C20.7937 19.0098 20.5722 19.3228 20.2143 19.3446C19.7368 19.3743 19.2578 19.3732 18.7805 19.341C18.4352 19.3171 18.2236 19.0225 18.2348 18.6836C18.2461 18.3446 18.4676 18.107 18.8339 18.083C19.0667 18.0676 19.3008 18.083 19.5371 18.083L19.5301 18.0809Z" fill="white"/>
<path id="Vector_8" d="M10.4966 21.9133C10.2751 21.9133 10.0529 21.9246 9.83212 21.9098C9.46576 21.8859 9.24215 21.6546 9.2309 21.3107C9.21965 20.9669 9.4299 20.6778 9.77446 20.6525C10.2635 20.6184 10.7544 20.6184 11.2434 20.6525C11.5852 20.6771 11.7912 20.9809 11.775 21.3213C11.7588 21.6616 11.5331 21.8838 11.1618 21.9091C10.941 21.9246 10.7188 21.9133 10.4966 21.9133Z" fill="white"/>
<path id="Vector_9" d="M14.9909 21.9123C14.7694 21.9123 14.5464 21.925 14.3256 21.9123C13.9621 21.887 13.7399 21.6529 13.7308 21.3083C13.7216 20.9637 13.9354 20.6754 14.2813 20.6543C14.759 20.623 15.2382 20.623 15.7158 20.6543C16.0745 20.6768 16.2946 20.9813 16.2784 21.335C16.2594 21.6768 16.0344 21.8976 15.6596 21.9173C15.4388 21.9299 15.2166 21.9173 14.9944 21.9173L14.9909 21.9123Z" fill="white"/>
<path id="Vector_10" d="M19.4995 21.9148C19.2773 21.9148 19.0551 21.926 18.8343 21.9148C18.4658 21.8902 18.2436 21.6616 18.231 21.3178C18.2183 20.9739 18.4419 20.6708 18.8069 20.6497C19.2732 20.622 19.7407 20.622 20.2069 20.6497C20.5663 20.6722 20.7906 20.9718 20.7751 21.3241C20.7596 21.6764 20.536 21.8909 20.1647 21.9141C19.9432 21.926 19.721 21.9148 19.4995 21.9148Z" fill="white"/>
</g>
</g>
</g>
</g>
</svg>
