<svg width="16" height="16" viewBox="0 0 16 16" fill="none" xmlns="http://www.w3.org/2000/svg">
<g id="Group 40176">
<path id="Vector" d="M8.01203 0.00578286H13.9807C15.2074 0.00578286 15.9967 0.789441 15.9973 2.00555C15.9973 6.00508 15.9973 10.0046 15.9973 14.0041C15.9973 15.2221 15.2074 16.0039 13.9807 16.0039C9.99159 16.0039 6.00247 16.0039 2.01336 16.0039C0.772879 16.0039 -0.00328132 15.2221 -0.00390625 13.9723V2.03617C-0.00390625 0.775067 0.772879 0.00453118 2.04398 0.00390625L8.01203 0.00578286ZM14.7487 8.02297C14.7487 6.0232 14.7487 4.02344 14.7487 2.02367C14.7487 1.48561 14.5231 1.25376 13.9988 1.25376C9.9993 1.25376 5.99977 1.25376 2.00024 1.25376C1.47342 1.25376 1.24595 1.48561 1.24595 2.02055C1.24595 6.00799 1.24595 9.99607 1.24595 13.9848C1.24595 14.5328 1.47217 14.7547 2.02836 14.7553H13.9645C14.5338 14.7553 14.7506 14.5347 14.7506 13.9566C14.7498 11.9777 14.7492 9.99982 14.7487 8.02297Z" fill="#898989"/>
<path id="Vector_2" d="M6.82153 12.1483L2.53516 8.07373L3.39443 7.16884L6.7503 10.3516L12.529 3.90234C12.8415 4.18294 13.1427 4.44916 13.462 4.73287L6.82153 12.1483Z" fill="#898989"/>
</g>
</svg>
