<svg width="16" height="16" viewBox="0 0 16 16" fill="none" xmlns="http://www.w3.org/2000/svg">
<g id="Group 40190">
<path id="Vector" d="M12.2737 3.44598V6.53518C11.689 6.65508 11.6709 6.6457 11.5188 6.1199C11.4659 5.93838 11.4184 5.75485 11.3581 5.576C11.1518 4.95843 10.6481 4.58936 10.0037 4.57998C9.72439 4.57596 9.44575 4.57998 9.16711 4.57998C8.59642 4.57998 8.57901 4.59606 8.57901 5.15401C8.57901 6.449 8.57901 7.74398 8.57901 9.03896C8.57901 9.55204 8.57164 10.0658 8.57901 10.5795C8.59307 11.3163 9.00367 11.7477 9.74248 11.8288C10.1062 11.8683 10.4672 11.9259 10.8477 11.9781V12.5414H5.1569V11.9775C5.55879 11.9245 5.94327 11.871 6.32908 11.8247C6.96474 11.749 7.4095 11.3177 7.41553 10.6773C7.43294 8.76969 7.4229 6.85937 7.42625 4.95441C7.42625 4.68648 7.30702 4.5706 7.03641 4.57998C6.69079 4.59204 6.34449 4.57998 5.99886 4.58467C5.70142 4.58268 5.411 4.67503 5.16933 4.84846C4.92767 5.02188 4.7472 5.26745 4.65387 5.54988C4.59224 5.72805 4.54871 5.91292 4.49646 6.09444C4.34575 6.61891 4.34508 6.61891 3.74023 6.56332V3.45669C4.08251 3.45669 4.42747 3.34684 4.70812 3.65764C4.76037 3.71591 4.89366 3.71792 4.98945 3.71792C6.9989 3.72105 9.00836 3.72105 11.0178 3.71792C11.1042 3.71792 11.2281 3.72596 11.2717 3.67505C11.5443 3.3589 11.8953 3.44062 12.2737 3.44598Z" fill="#898989"/>
<path id="Vector_2" d="M2.86914 1.41334V0.870117H13.1334V1.41334H2.86914Z" fill="#898989"/>
<path id="Vector_3" d="M0.880859 2.86719H1.40935V13.1342H0.880859V2.86719Z" fill="#898989"/>
<path id="Vector_4" d="M15.1386 13.138H14.5967V2.87305H15.1386V13.138Z" fill="#898989"/>
<path id="Vector_5" d="M13.1364 14.5967V15.1325H2.87207V14.5967H13.1364Z" fill="#898989"/>
<path id="Vector_6" d="M0.00987812 1.11781C0.00987812 0.849887 0.00987812 0.58196 0.00987812 0.314033C0.00987812 0.113087 0.11839 0.00457607 0.320675 0.00390625C0.865907 0.00390625 1.41114 0.00390625 1.95637 0.00390625C2.17406 0.00390625 2.29128 0.122466 2.29128 0.332789C2.29798 0.868644 2.29731 1.4045 2.29128 1.93499C2.29128 2.16139 2.162 2.28732 1.93561 2.28933C1.39975 2.29402 0.867913 2.29469 0.333398 2.28933C0.123075 2.28933 0.00585938 2.16943 0.00585938 1.95442C0.00585938 1.67644 0.00585938 1.39847 0.00585938 1.1205L0.00987812 1.11781Z" fill="#898989"/>
<path id="Vector_7" d="M13.7103 1.13411C13.7103 0.889623 13.7103 0.645139 13.7103 0.397306C13.7103 0.149473 13.8141 -0.00458466 14.0854 0.000104075C14.6085 0.000104075 15.131 0.000104075 15.6541 0.000104075C15.8885 0.000104075 16.0017 0.113973 16.0011 0.34774C16.0011 0.870199 16.0011 1.39333 16.0011 1.91645C16.0011 2.16429 15.8812 2.2882 15.636 2.28954C15.1136 2.28954 14.5904 2.29289 14.0673 2.28954C13.8409 2.28954 13.717 2.16094 13.7123 1.93454C13.7063 1.66862 13.7103 1.40136 13.7103 1.13411Z" fill="#898989"/>
<path id="Vector_8" d="M0.00630598 14.8427C0.00630598 14.5868 0.00630598 14.3309 0.00630598 14.0751C0.00630598 13.8453 0.113477 13.714 0.341215 13.712C0.87707 13.7067 1.41114 13.7067 1.94342 13.712C2.17116 13.712 2.28972 13.846 2.29106 14.0737C2.29419 14.5966 2.29419 15.1198 2.29106 15.6431C2.29106 15.8909 2.1571 16.0015 1.9106 16.0001C1.39886 15.9968 0.886448 15.9954 0.374706 16.0001C0.106779 16.0001 -0.00641828 15.8708 0.000279901 15.6096C0.00697809 15.3484 0.00563616 15.1012 0.00630598 14.8427Z" fill="#898989"/>
<path id="Vector_9" d="M14.871 15.9991C14.6151 15.9991 14.3593 15.9951 14.1034 15.9991C13.8475 16.0031 13.7122 15.8792 13.7129 15.6173C13.7129 15.1056 13.7129 14.5931 13.7129 14.0814C13.7129 13.8383 13.8428 13.7103 14.086 13.709C14.6091 13.709 15.1316 13.709 15.6547 13.709C15.8824 13.709 16.0017 13.8309 16.001 14.064C16.001 14.5998 16.001 15.1317 16.001 15.6655C16.001 15.8839 15.8898 15.9944 15.6714 15.9951H14.871V15.9991Z" fill="#898989"/>
</g>
</svg>
