<svg width="16" height="16" viewBox="0 0 16 16" fill="none" xmlns="http://www.w3.org/2000/svg">
<path id="Vector" d="M5.61136 11.3511C5.46151 12.2224 5.31192 13.0924 5.16259 13.961C5.08562 14.4108 5.0125 14.8607 4.93167 15.3088C4.84469 15.8087 4.54682 16.0736 4.17889 15.9836C3.81096 15.8937 3.647 15.5338 3.73398 15.0298C3.92719 13.9143 4.11422 12.7972 4.30127 11.681C4.31743 11.586 4.31821 11.4877 4.3313 11.3303H3.95874C2.88111 11.3303 1.80348 11.3303 0.725854 11.3303C0.27402 11.3303 0 11.0712 0 10.6638C0 10.2565 0.270942 10.0024 0.726625 9.99739C1.86788 9.99739 3.0094 9.99739 4.15117 9.99739H4.57761C4.80391 8.6512 5.02251 7.34749 5.24958 5.9988H3.76399C3.04506 5.9988 2.3269 5.9988 1.60874 5.9988C1.15536 5.9988 0.89674 5.74057 0.904438 5.31905C0.911365 4.91503 1.16307 4.67261 1.5972 4.67094C2.73871 4.67094 3.88023 4.67094 5.02175 4.67094H5.46665C5.6206 3.77876 5.77069 2.9099 5.91925 2.04021C5.99622 1.57787 6.0732 1.11387 6.15017 0.651531C6.22714 0.189194 6.54042 -0.0690464 6.89681 0.0175896C7.2532 0.104226 7.43564 0.465765 7.35482 0.933933C7.16136 2.04965 6.97045 3.16536 6.78212 4.28108C6.76658 4.40625 6.75709 4.53221 6.75365 4.65845H10.3906C10.5153 3.9462 10.6416 3.23062 10.7647 2.5142C10.8694 1.90192 10.9687 1.28798 11.0726 0.675692C11.1542 0.202526 11.4444 -0.0557178 11.8023 0.0175896C12.1795 0.0942292 12.3596 0.460765 12.2742 0.953091C12.0812 2.06881 11.8911 3.18508 11.7038 4.3019C11.6853 4.40937 11.6861 4.521 11.6746 4.67428H13.4449C14.073 4.67428 14.7019 4.66928 15.33 4.67428C15.7418 4.67928 16.0105 4.96334 15.9997 5.35653C15.9889 5.73473 15.7287 5.99797 15.3323 5.99964C14.1777 6.0063 13.0231 5.99964 11.8685 5.99964H11.4221L10.7478 9.99822H11.1758C12.2403 9.99822 13.3056 9.99822 14.3702 9.99822C14.832 9.99822 15.0906 10.2398 15.0945 10.6563C15.0983 11.0728 14.8405 11.3228 14.3817 11.3228C13.1124 11.3228 11.8416 11.3228 10.533 11.3228C10.406 12.0508 10.2798 12.7664 10.1574 13.4828C10.052 14.0951 9.95343 14.7091 9.84952 15.3213C9.76793 15.7945 9.4762 16.0536 9.11904 15.9794C8.74341 15.902 8.56328 15.5354 8.64872 15.0431C8.84218 13.928 9.03232 12.8117 9.21911 11.6943C9.23681 11.5868 9.23603 11.4752 9.24604 11.3436L5.61136 11.3511ZM5.83765 9.97491H9.51159C9.73328 8.65038 9.95266 7.34833 10.1751 6.0238H6.49886C6.27949 7.34833 6.06011 8.65038 5.83765 9.97491Z" fill="#898989"/>
</svg>
