<svg width="16" height="17" viewBox="0 0 16 17" fill="none" xmlns="http://www.w3.org/2000/svg">
<g id="Vector">
<path d="M8.00408 0.729493C9.05685 0.729071 10.0993 0.93665 11.0716 1.3403C12.0439 1.74395 12.9269 2.33571 13.6698 3.08161C14.4128 3.8275 15.001 4.71283 15.4008 5.68674C15.8006 6.66064 16.004 7.70394 15.9994 8.75669C15.9994 13.161 12.4058 16.7307 7.98031 16.7295C3.55479 16.7282 -0.00374748 13.136 2.96179e-06 8.68605C0.00312833 4.30241 3.59794 0.728868 8.00408 0.729493ZM0.998258 8.72044C0.995133 12.5709 4.13176 15.7213 7.97533 15.7313C11.842 15.74 14.998 12.5978 15.0012 8.73794C15.0043 4.87811 11.867 1.73398 8.02408 1.72773C4.15675 1.71898 1.00076 4.85936 0.998258 8.72044Z" fill="#818181"/>
<path d="M8.49715 4.77204C9.30974 5.02207 9.88544 5.50087 10.1392 6.31409C10.1944 6.49138 10.2285 6.67453 10.2411 6.85978C10.2648 7.22357 10.0748 7.45923 9.7729 7.47485C9.47099 7.49048 9.27722 7.28296 9.24659 6.91229C9.16909 5.96343 8.17271 5.4271 7.36762 5.90091C7.13596 6.03428 6.95382 6.23921 6.84855 6.48492C6.74328 6.73062 6.72057 7.00385 6.78381 7.26357C6.93758 7.85114 7.39514 8.2118 8.00896 8.22931C9.10284 8.25931 9.97044 8.97003 10.193 10.0183C10.3036 10.5421 10.2235 11.0882 9.96695 11.5581C9.71045 12.028 9.29448 12.3908 8.79406 12.5811C8.69905 12.618 8.60278 12.6511 8.51277 12.6836C8.45027 13.5399 8.35774 13.725 7.99895 13.7262C7.64016 13.7275 7.5389 13.5306 7.49077 12.8017C7.05697 12.4892 6.64442 12.2485 6.30313 11.931C5.92809 11.5797 5.77369 11.0921 5.74994 10.5777C5.73306 10.2145 5.92873 9.98514 6.23626 9.97889C6.53067 9.97326 6.71817 10.1745 6.7463 10.5271C6.80443 11.254 7.38013 11.7716 8.08084 11.726C8.40618 11.7015 8.70936 11.5518 8.92664 11.3084C9.14392 11.065 9.25839 10.7468 9.24598 10.4208C9.21848 9.74699 8.68342 9.24444 7.96834 9.22631C7.67105 9.2225 7.37748 9.15982 7.10456 9.04189C6.83164 8.92395 6.58478 8.75311 6.37828 8.53922C6.17177 8.32533 6.00969 8.07264 5.90141 7.79575C5.79314 7.51886 5.7408 7.22327 5.74744 6.92604C5.75869 6.02593 6.35377 5.19082 7.2145 4.86766C7.30201 4.83516 7.39139 4.80517 7.49828 4.77079C7.49828 4.58326 7.4889 4.39574 7.49828 4.20822C7.50233 4.07969 7.55611 3.95774 7.64829 3.86808C7.74048 3.77841 7.86385 3.72803 7.99245 3.72754C8.12105 3.72706 8.24481 3.7765 8.33767 3.86547C8.43053 3.95443 8.48526 4.07597 8.49028 4.20447C8.50653 4.38449 8.49715 4.56201 8.49715 4.77204Z" fill="#818181"/>
</g>
</svg>
