<svg width="16" height="17" viewBox="0 0 16 17" fill="none" xmlns="http://www.w3.org/2000/svg">
<g id="Group 40182">
<path id="Vector" d="M7.99828 16.9091C6.63491 16.9091 5.27154 16.9224 3.90817 16.9056C1.9582 16.8825 0.464091 15.6471 0.0690633 13.7419C0.0212311 13.4785 -8.36447e-05 13.211 0.00543915 12.9434C0.00124417 10.2509 -0.00434914 7.55986 0.00543915 4.86668C0.0131299 2.88385 1.26393 1.36387 3.19502 0.976538C3.44753 0.932789 3.70371 0.913822 3.95991 0.919906C6.65169 0.91641 9.34347 0.908719 12.0359 0.919906C14.0279 0.928296 15.5388 2.17001 15.9331 4.1011C15.9753 4.33003 15.9945 4.56261 15.9904 4.79537C15.9946 7.53399 16.0058 10.2726 15.9904 13.0112C15.9785 14.9535 14.7242 16.4546 12.819 16.8434C12.5206 16.8934 12.2181 16.9145 11.9157 16.9063C10.609 16.9133 9.30361 16.9098 7.99828 16.9091ZM14.8759 8.94281C14.8759 7.62628 14.8759 6.30976 14.8725 4.99323C14.8802 4.7259 14.858 4.45854 14.806 4.19618C14.5026 2.88735 13.4559 2.04696 12.0828 2.03996C9.35605 2.02668 6.62931 2.03507 3.90258 2.03996C3.69317 2.03722 3.48415 2.05857 3.27962 2.10359C1.97219 2.41192 1.12969 3.45927 1.1234 4.83033C1.11152 7.55706 1.11851 10.2838 1.1234 13.0105C1.12101 13.2199 1.14235 13.4289 1.18703 13.6335C1.49536 14.9402 2.53851 15.7827 3.91376 15.7897C6.6405 15.8044 9.36724 15.7953 12.094 15.7897C12.3032 15.7922 12.512 15.7706 12.7162 15.7254C14.0251 15.4157 14.8585 14.3718 14.8731 12.9987C14.885 11.6465 14.8752 10.2943 14.8759 8.94281Z" fill="#898989"/>
<path id="Vector_2" d="M7.974 9.53712C8.76056 8.74777 9.48419 8.02274 10.2078 7.2998C10.2701 7.23056 10.3374 7.16605 10.4092 7.10683C10.6595 6.92295 10.9112 6.93624 11.1412 7.13829C11.3391 7.31169 11.3607 7.64659 11.1985 7.86962C11.1486 7.93439 11.0934 7.99496 11.0335 8.0507C10.1945 8.8897 9.35391 9.73009 8.51166 10.5719C8.1362 10.9459 7.87542 10.9459 7.50206 10.5719C6.6598 9.73289 5.82081 8.8918 4.98508 8.0486C4.8816 7.94443 4.77043 7.81928 4.73268 7.68434C4.66276 7.42985 4.73268 7.19493 4.98088 7.05509C5.22908 6.91526 5.47449 6.967 5.68004 7.17185C6.35544 7.84724 7.03129 8.5231 7.70762 9.19943C7.80196 9.3075 7.89087 9.42021 7.974 9.53712Z" fill="#898989"/>
</g>
</svg>
