<svg width="30" height="30" viewBox="0 0 30 30" fill="none" xmlns="http://www.w3.org/2000/svg">
<g id="Group 40169">
<g id="Group 40141">
<g id="Group 40194">
<rect id="Rectangle 1866" width="30" height="30" rx="3" fill="#199EC7"/>
<path id="Vector" d="M6.00209 10.1301C5.97245 9.36736 6.25755 8.58987 6.90683 7.95285C7.41002 7.46122 7.89488 6.9471 8.42348 6.48566C9.16379 5.84162 10.0671 5.83179 10.7814 6.4941C11.6656 7.31513 12.5174 8.17338 13.3467 9.05059C13.9571 9.69674 13.9706 10.5698 13.3947 11.2531C12.9804 11.7448 12.5076 12.1887 12.0439 12.636C11.8816 12.792 11.8541 12.91 11.9606 13.1115C12.636 14.3947 13.5725 15.4742 14.6608 16.4125C15.3312 16.9898 16.0991 17.4548 16.8189 17.9759C17.0497 18.1423 17.2141 18.1206 17.4153 17.9014C17.795 17.4878 18.1994 17.0931 18.615 16.7145C19.3624 16.0367 20.2897 16.0234 21.0237 16.7145C21.8607 17.5025 22.6754 18.3135 23.4677 19.1474C24.1734 19.8954 24.1734 20.8548 23.4916 21.614C22.9899 22.1703 22.4662 22.7111 21.9193 23.2238C21.1952 23.9029 20.306 24.0778 19.337 23.971C17.8253 23.8046 16.4632 23.2167 15.1562 22.4926C11.6275 20.538 8.95279 17.7518 7.12775 14.172C6.506 12.95 6.01903 11.6703 6.00209 10.1301ZM19.8169 23.0938C20.1174 23.1093 20.4177 23.0589 20.6965 22.9462C20.9753 22.8334 21.2257 22.6611 21.4302 22.4413C21.8388 22.0199 22.251 21.6041 22.661 21.1849C23.2073 20.6279 23.2136 20.1918 22.6688 19.6439C21.963 18.9374 21.2559 18.235 20.5473 17.5369C20.011 17.0067 19.6136 17.0067 19.0653 17.5369C18.6369 17.9548 18.2184 18.3797 17.7907 18.8011C17.4379 19.1523 17.1443 19.2134 16.7173 18.9585C16.0348 18.5504 15.3291 18.162 14.7123 17.6676C13.1914 16.449 11.8625 15.0521 11.0192 13.2632C10.7842 12.7652 10.8442 12.5173 11.2401 12.1395C11.672 11.7251 12.1081 11.3149 12.5217 10.883C13.0044 10.378 12.996 9.97839 12.5048 9.48184C11.7783 8.7486 11.0467 8.02029 10.3099 7.29688C9.81166 6.80524 9.37552 6.80946 8.87304 7.29688C8.46018 7.69651 8.06851 8.11861 7.64648 8.50841C7.06495 9.0457 6.87013 9.70238 6.92447 10.475C7.01199 11.6886 7.44322 12.7976 7.99511 13.8574C9.89566 17.5095 12.6784 20.2873 16.3934 22.1148C17.4753 22.6422 18.5946 23.051 19.8169 23.0938Z" fill="white"/>
</g>
</g>
</g>
</svg>
