<svg width="30" height="30" viewBox="0 0 30 30" fill="none" xmlns="http://www.w3.org/2000/svg">
<g id="Group 40171">
<g id="Group 40139">
<g id="Group 40187">
<rect id="Rectangle 1866" width="30" height="30" rx="3" fill="#528CCB"/>
<g id="Group 40186">
<path id="Vector" d="M15.0051 5C16.3211 4.99947 17.6241 5.25895 18.8395 5.76351C20.0549 6.26807 21.1586 7.00777 22.0873 7.94014C23.016 8.87251 23.7513 9.97918 24.251 11.1966C24.7507 12.4139 25.005 13.7181 24.9992 15.034C24.9992 20.5393 20.5073 25.0016 14.9754 25C9.44349 24.9984 4.99532 20.5081 5 14.9457C5.00391 9.46615 9.49743 4.99922 15.0051 5ZM6.24782 14.9887C6.24392 19.8017 10.1647 23.7397 14.9692 23.7522C19.8025 23.7631 23.7475 19.8353 23.7514 15.0106C23.7553 10.1858 19.8338 6.25561 15.0301 6.2478C10.1959 6.23686 6.25095 10.1623 6.24782 14.9887Z" fill="white"/>
<path id="Vector_2" d="M15.6214 10.0517C16.6372 10.3643 17.3568 10.9628 17.674 11.9793C17.743 12.2009 17.7857 12.4298 17.8014 12.6614C17.8311 13.1161 17.5935 13.4107 17.2161 13.4302C16.8387 13.4498 16.5965 13.1904 16.5582 12.727C16.4614 11.541 15.2159 10.8705 14.2095 11.4628C13.9199 11.6295 13.6923 11.8857 13.5607 12.1928C13.4291 12.4999 13.4007 12.8415 13.4798 13.1661C13.672 13.9006 14.2439 14.3514 15.0112 14.3733C16.3785 14.4108 17.463 15.2992 17.7412 16.6095C17.8795 17.2643 17.7793 17.9469 17.4587 18.5343C17.1381 19.1217 16.6181 19.5752 15.9926 19.813C15.8738 19.8591 15.7535 19.9005 15.641 19.9411C15.5628 21.0116 15.4472 21.2429 14.9987 21.2444C14.5502 21.246 14.4236 20.9999 14.3635 20.0888C13.8212 19.6982 13.3055 19.3973 12.8789 19.0004C12.4101 18.5613 12.2171 17.9519 12.1874 17.3088C12.1663 16.8548 12.4109 16.5681 12.7953 16.5603C13.1633 16.5532 13.3977 16.8048 13.4329 17.2455C13.5055 18.1542 14.2252 18.8012 15.101 18.7441C15.5077 18.7135 15.8867 18.5264 16.1583 18.2222C16.4299 17.9179 16.573 17.5202 16.5575 17.1127C16.5231 16.2704 15.8543 15.6422 14.9604 15.6196C14.5888 15.6148 14.2218 15.5364 13.8807 15.389C13.5396 15.2416 13.231 15.0281 12.9728 14.7607C12.7147 14.4933 12.5121 14.1775 12.3768 13.8314C12.2414 13.4852 12.176 13.1158 12.1843 12.7442C12.1984 11.6191 12.9422 10.5752 14.0181 10.1712C14.1275 10.1306 14.2392 10.0931 14.3729 10.0502C14.3729 9.81575 14.3611 9.58135 14.3729 9.34695C14.3779 9.18628 14.4451 9.03384 14.5604 8.92177C14.6756 8.80969 14.8298 8.74671 14.9906 8.7461C15.1513 8.74549 15.306 8.8073 15.4221 8.9185C15.5382 9.02971 15.6066 9.18163 15.6128 9.34225C15.6332 9.56728 15.6214 9.78919 15.6214 10.0517Z" fill="white"/>
</g>
</g>
</g>
</g>
</svg>
