<svg width="16" height="12" viewBox="0 0 16 12" fill="none" xmlns="http://www.w3.org/2000/svg">
<path id="Vector" d="M7.96736 11.5142C5.90203 11.5142 3.83668 11.486 1.77208 11.5254C0.62133 11.5469 -0.0101447 10.6831 0.00012328 9.72423C0.028727 7.18912 0.00891654 4.65475 0.0103834 2.11963C0.0103834 0.9864 0.634541 0.33332 1.74495 0.331836C5.91229 0.326888 10.0794 0.326888 14.2462 0.331836C15.3632 0.331836 15.9889 0.981199 15.9896 2.11295C15.9896 4.64732 15.9712 7.18243 15.9998 9.71755C16.0109 10.6452 15.4212 11.5528 14.1993 11.5276C12.123 11.4861 10.0444 11.5142 7.96736 11.5142ZM1.00932 10.7877C1.26382 10.8411 1.42445 10.9042 1.5858 10.9042C5.86218 10.9097 10.1385 10.9097 14.4149 10.9042C14.5902 10.9042 14.7655 10.8218 14.9914 10.7647L10.5175 5.60467C10.4441 5.65736 10.4038 5.67888 10.3708 5.71302C9.6821 6.32453 8.98975 6.93234 8.3084 7.55127C8.09497 7.74497 7.92262 7.75684 7.70846 7.55127C7.33368 7.19728 6.94275 6.86036 6.55696 6.51824C6.21225 6.21322 5.86607 5.91042 5.51256 5.59947L1.00932 10.7877ZM14.7479 0.979713H1.25282C3.54112 3.02428 5.75974 5.00576 8.00036 7.00655L14.7479 0.979713ZM0.807628 1.39308C0.596401 1.74931 0.507662 9.64186 0.703487 10.2244L5.06445 5.1965L0.807628 1.39308ZM10.9546 5.18686L15.3398 10.24C15.3643 10.1062 15.3817 9.97122 15.3919 9.83555C15.3919 7.22919 15.3919 4.62283 15.3919 2.01647C15.3919 1.81312 15.3104 1.60978 15.254 1.34855L10.9546 5.18686Z" fill="#818181"/>
</svg>
