<svg width="16" height="11" viewBox="0 0 16 11" fill="none" xmlns="http://www.w3.org/2000/svg">
<g id="Vector">
<path d="M3.90534 1.16193C4.56057 1.16573 4.94832 1.47904 5.18573 2.02129C5.8706 3.59202 6.55799 5.1617 7.24788 6.73032C7.42452 7.13495 7.60869 7.5364 7.77281 7.94611C7.99393 8.49724 7.79912 9.0452 7.30989 9.29381C6.79498 9.55511 6.2049 9.37752 5.91487 8.84478C5.7554 8.537 5.61542 8.21925 5.4958 7.89347C5.42627 7.71462 5.33669 7.63407 5.13248 7.63978C4.31898 7.65246 3.50465 7.65246 2.68948 7.63978C2.48589 7.63978 2.39757 7.71208 2.32866 7.89347C2.20906 8.21827 2.07123 8.53589 1.91586 8.84478C1.81677 9.0389 1.66028 9.19684 1.46825 9.29655C1.27621 9.39627 1.05821 9.43278 0.844692 9.40099C0.427502 9.33757 0.0929979 9.04076 0.0165757 8.60569C-0.0188843 8.39974 0.00280076 8.18788 0.0792169 7.99367C0.947424 5.97561 1.82586 3.96177 2.71453 1.95216C2.95069 1.42006 3.37414 1.15495 3.90534 1.16193ZM3.94982 1.67247C3.52323 1.64393 3.28206 1.89254 3.1217 2.25912L2.20025 4.36914C1.65736 5.61136 1.11447 6.85399 0.571577 8.09705C0.409962 8.4687 0.535871 8.79468 0.864111 8.88728C1.11468 8.95831 1.38341 8.81942 1.51809 8.52451C1.68346 8.1611 1.83693 7.79199 1.98414 7.42034C2.06494 7.21612 2.19273 7.13051 2.4126 7.13178C3.41486 7.13854 4.41712 7.13854 5.41938 7.13178C5.63988 7.13178 5.76391 7.21993 5.84409 7.42351C5.98691 7.78501 6.13725 8.14461 6.30262 8.49597C6.473 8.85747 6.76992 8.98685 7.05807 8.85049C7.35687 8.70906 7.43768 8.42177 7.27481 8.04821C6.77368 6.90156 6.27255 5.75532 5.77142 4.60951C5.42627 3.81991 5.08237 3.02905 4.73659 2.24009C4.585 1.90015 4.36638 1.65218 3.94982 1.67374V1.67247Z" fill="#898989"/>
<path d="M11.9552 8.95069C11.2568 9.43396 10.5064 9.56715 9.70768 9.36991C8.72296 9.12637 8.15042 8.4021 8.14729 7.42605C8.14353 6.41828 8.7311 5.6661 9.72271 5.42193C10.3227 5.27618 10.9469 5.2645 11.5518 5.38769C11.622 5.401 11.6934 5.40735 11.7698 5.4175C11.6815 5.08073 11.471 4.90315 11.077 4.9152C10.652 4.92693 10.2286 4.9738 9.81104 5.05536C9.27358 5.16318 8.79938 4.94881 8.64779 4.47379C8.48492 3.96198 8.74864 3.45904 9.28548 3.27385C10.128 2.98444 11.0288 2.914 11.9051 3.069C13.1035 3.27766 13.847 4.12624 13.884 5.35661C13.9128 6.33837 13.8952 7.32267 13.9034 8.30317C13.9078 8.78644 13.7117 9.15047 13.2682 9.32932C12.8078 9.51451 12.3912 9.41431 12.0442 9.04012C12.0235 9.01412 11.9997 8.99382 11.9552 8.95069ZM13.3998 6.86667H13.3866C13.3866 6.3593 13.4048 5.85193 13.3822 5.34456C13.3402 4.38944 12.7859 3.74444 11.8569 3.57193C11.0649 3.42075 10.2477 3.48041 9.4853 3.74507C9.1721 3.85352 9.04682 4.05013 9.12762 4.30953C9.19465 4.53404 9.4164 4.60063 9.71958 4.55243C10.17 4.48203 10.626 4.40846 11.0789 4.4091C11.8068 4.4091 12.2691 4.86446 12.3317 5.55068C12.3712 6.01619 12.2647 6.10498 11.8224 5.9756C11.0839 5.75934 10.3422 5.7346 9.61121 5.99082C8.97478 6.21407 8.63025 6.75188 8.65092 7.42922C8.67222 8.13827 9.03617 8.65578 9.69327 8.83971C10.4844 9.06105 11.218 8.95894 11.8387 8.35644C12.0812 8.12114 12.2396 8.16237 12.3342 8.46806C12.4288 8.77375 12.6537 8.93103 12.9343 8.89552C13.215 8.86 13.3922 8.65578 13.3966 8.31965C13.4041 7.83765 13.3998 7.35184 13.3998 6.86667Z" fill="#898989"/>
<path d="M15.1769 9.65532H15.9987V10.143H13.8151V9.67308H14.6263V0.80044H13.8151V0.296875H16V0.774439H15.1769V9.65532Z" fill="#898989"/>
<path d="M3.91662 6.17665C3.60341 6.17665 3.29021 6.18109 2.977 6.17665C2.6638 6.17221 2.56607 6.03775 2.67883 5.75933C2.9983 4.96995 3.32633 4.18416 3.66292 3.40197C3.70113 3.31318 3.82829 3.19965 3.90284 3.2079C3.95944 3.22036 4.01262 3.24536 4.05854 3.28111C4.10447 3.31686 4.142 3.36247 4.16844 3.41465C4.50169 4.18649 4.82241 4.96467 5.13687 5.74475C5.25213 6.02888 5.15566 6.16904 4.85561 6.17601C4.54303 6.18299 4.22983 6.17665 3.91662 6.17665ZM3.91035 4.08945L3.26578 5.65913H4.56057L3.91035 4.08945Z" fill="#898989"/>
<path d="M11.0927 6.24008C11.4617 6.33014 11.8018 6.38468 12.1181 6.50391C12.234 6.54704 12.3587 6.73667 12.3687 6.86858C12.4126 7.41718 12.214 7.87445 11.7072 8.11925C11.1673 8.37928 10.6022 8.44968 10.0785 8.08057C9.55487 7.71146 9.60811 6.8299 10.1957 6.51533C10.4675 6.36693 10.797 6.3257 11.0927 6.24008ZM11.0445 6.7817C10.8935 6.82229 10.6617 6.84893 10.4632 6.94533C10.3985 6.9788 10.3431 7.02799 10.3019 7.08849C10.2607 7.14898 10.235 7.21889 10.227 7.29194C10.2191 7.36499 10.2292 7.43889 10.2564 7.50702C10.2836 7.57515 10.3271 7.63537 10.383 7.68228C10.7588 7.9848 11.6358 7.75585 11.8187 7.30683C11.9409 7.01002 11.9008 6.9263 11.5832 6.85844C11.4322 6.82483 11.2769 6.81087 11.0445 6.78043V6.7817Z" fill="#898989"/>
</g>
</svg>
