<svg width="30" height="30" viewBox="0 0 30 30" fill="none" xmlns="http://www.w3.org/2000/svg">
<g id="Group 40151">
<g id="Group 40127">
<g id="Group 40191">
<rect id="Rectangle 1866" width="30" height="30" rx="3" fill="#00CFDC"/>
<g id="Group 40190">
<path id="Vector" d="M20.3387 9.31162V13.1731C19.6078 13.323 19.5852 13.3113 19.3951 12.654C19.3289 12.4271 19.2695 12.1977 19.1941 11.9741C18.9363 11.2022 18.3066 10.7408 17.5012 10.7291C17.152 10.7241 16.8037 10.7291 16.4554 10.7291C15.7421 10.7291 15.7203 10.7492 15.7203 11.4467C15.7203 13.0654 15.7203 14.6841 15.7203 16.3028C15.7203 16.9442 15.7111 17.5864 15.7203 18.2285C15.7379 19.1495 16.2511 19.6887 17.1747 19.7901C17.6293 19.8395 18.0806 19.9115 18.5562 19.9768V20.6809H11.4427V19.9759C11.9451 19.9098 12.4257 19.8428 12.9079 19.785C13.7025 19.6904 14.2584 19.1512 14.266 18.3508C14.2877 15.9662 14.2752 13.5784 14.2794 11.1972C14.2794 10.8622 14.1303 10.7174 13.7921 10.7291C13.3601 10.7442 12.9272 10.7291 12.4952 10.735C12.1233 10.7325 11.7603 10.8479 11.4582 11.0647C11.1562 11.2815 10.9306 11.5885 10.8139 11.9415C10.7369 12.1642 10.6825 12.3953 10.6172 12.6222C10.4288 13.2778 10.4279 13.2778 9.67188 13.2083V9.32502C10.0997 9.32502 10.5309 9.1877 10.8817 9.5762C10.947 9.64904 11.1137 9.65155 11.2334 9.65155C13.7452 9.65546 16.257 9.65546 18.7688 9.65155C18.8768 9.65155 19.0317 9.6616 19.0861 9.59797C19.4269 9.20278 19.8656 9.30492 20.3387 9.31162Z" fill="white"/>
<path id="Vector_2" d="M8.58203 6.77083V6.0918H21.4124V6.77083H8.58203Z" fill="white"/>
<path id="Vector_3" d="M6.09766 8.58789H6.75826V21.4216H6.09766V8.58789Z" fill="white"/>
<path id="Vector_4" d="M23.9195 21.4269H23.2422V8.5957H23.9195V21.4269Z" fill="white"/>
<path id="Vector_5" d="M21.4163 23.25V23.9198H8.58594V23.25H21.4163Z" fill="white"/>
<path id="Vector_6" d="M5.00893 6.40215C5.00893 6.06724 5.00893 5.73233 5.00893 5.39742C5.00893 5.14624 5.14457 5.0106 5.39742 5.00977C6.07896 5.00977 6.7605 5.00977 7.44204 5.00977C7.71415 5.00977 7.86067 5.15797 7.86067 5.42087C7.86904 6.09068 7.86821 6.7605 7.86067 7.42362C7.86067 7.70661 7.69908 7.86402 7.41608 7.86653C6.74626 7.87239 6.08147 7.87323 5.41333 7.86653C5.15042 7.86653 5.00391 7.71666 5.00391 7.4479C5.00391 7.10043 5.00391 6.75297 5.00391 6.4055L5.00893 6.40215Z" fill="white"/>
<path id="Vector_7" d="M22.1345 6.42153C22.1345 6.11593 22.1345 5.81033 22.1345 5.50054C22.1345 5.19075 22.2642 4.99818 22.6033 5.00404C23.2572 5.00404 23.9103 5.00404 24.5642 5.00404C24.8573 5.00404 24.9988 5.14637 24.9979 5.43858C24.9979 6.09165 24.9979 6.74556 24.9979 7.39946C24.9979 7.70925 24.848 7.86415 24.5416 7.86582C23.8885 7.86582 23.2346 7.87001 22.5807 7.86582C22.2977 7.86582 22.1428 7.70507 22.137 7.42207C22.1294 7.08968 22.1345 6.7556 22.1345 6.42153Z" fill="white"/>
<path id="Vector_8" d="M5.00398 23.557C5.00398 23.2372 5.00398 22.9173 5.00398 22.5975C5.00398 22.3103 5.13794 22.1462 5.42261 22.1437C6.09243 22.137 6.76001 22.137 7.42536 22.1437C7.71004 22.1437 7.85823 22.3112 7.85991 22.5958C7.86382 23.2495 7.86382 23.9034 7.85991 24.5575C7.85991 24.8673 7.69245 25.0055 7.38434 25.0038C6.74466 24.9996 6.10415 24.998 5.46447 25.0038C5.12957 25.0038 4.98807 24.8422 4.99644 24.5157C5.00482 24.1891 5.00314 23.8802 5.00398 23.557Z" fill="white"/>
<path id="Vector_9" d="M23.5844 25.0033C23.2645 25.0033 22.9447 24.9982 22.6248 25.0033C22.305 25.0083 22.1359 24.8534 22.1367 24.526C22.1367 23.8863 22.1367 23.2458 22.1367 22.6062C22.1367 22.3022 22.2992 22.1423 22.6031 22.1406C23.257 22.1406 23.9101 22.1406 24.564 22.1406C24.8486 22.1406 24.9977 22.293 24.9968 22.5844C24.9968 23.2542 24.9968 23.919 24.9968 24.5863C24.9968 24.8592 24.8578 24.9974 24.5849 24.9982H23.5844V25.0033Z" fill="white"/>
</g>
</g>
</g>
</g>
</svg>
