<svg width="30" height="30" viewBox="0 0 30 30" fill="none" xmlns="http://www.w3.org/2000/svg">
<g id="Group 40158">
<g id="Group 40133">
<g id="Group 40177">
<rect id="Rectangle 1866" width="30" height="30" rx="3" fill="#FF9128"/>
<g id="Group 40176">
<path id="Vector" d="M15.012 7.00578H20.9807C22.2074 7.00578 22.9967 7.78944 22.9973 9.00555C22.9973 13.0051 22.9973 17.0046 22.9973 21.0041C22.9973 22.2221 22.2074 23.0039 20.9807 23.0039C16.9916 23.0039 13.0025 23.0039 9.01336 23.0039C7.77288 23.0039 6.99672 22.2221 6.99609 20.9723V9.03617C6.99609 7.77507 7.77288 7.00453 9.04398 7.00391L15.012 7.00578ZM21.7487 15.023C21.7487 13.0232 21.7487 11.0234 21.7487 9.02367C21.7487 8.48561 21.5231 8.25376 20.9988 8.25376C16.9993 8.25376 12.9998 8.25376 9.00024 8.25376C8.47342 8.25376 8.24595 8.48561 8.24595 9.02055C8.24595 13.008 8.24595 16.9961 8.24595 20.9848C8.24595 21.5328 8.47217 21.7547 9.02836 21.7553H20.9645C21.5338 21.7553 21.7506 21.5347 21.7506 20.9566C21.7498 18.9777 21.7492 16.9998 21.7487 15.023Z" fill="white"/>
<path id="Vector_2" d="M13.8215 19.1502L9.53516 15.0757L10.3944 14.1708L13.7503 17.3536L19.529 10.9043C19.8415 11.1849 20.1427 11.4511 20.462 11.7348L13.8215 19.1502Z" fill="white"/>
</g>
</g>
</g>
</g>
</svg>
