<svg width="216" height="41" viewBox="0 0 216 41" fill="none" xmlns="http://www.w3.org/2000/svg">
<path d="M36.6521 9.1955C38.7695 12.4503 39.9001 16.278 39.8998 20.1945C39.8998 22.7945 39.4012 25.3689 38.4326 27.7704C37.464 30.172 36.0446 32.3534 34.2559 34.1904C32.4673 36.0273 30.3444 37.4839 28.0089 38.4775C25.6733 39.471 23.1705 39.9822 20.6432 39.9822C16.8366 39.9825 13.1146 38.8235 9.94766 36.6505C6.7806 34.4775 4.31052 31.3875 2.85145 27.7702C1.39235 24.1528 1.01035 20.1717 1.7542 16.3307C2.49803 12.4898 4.33395 8.96314 7.02816 6.19615C9.72225 3.42927 13.1534 1.5463 16.8872 0.78362C20.6208 0.0209554 24.491 0.412413 28.0086 1.90899C31.5264 3.40563 34.5348 5.94077 36.6521 9.1955Z" fill="white" stroke="#E8E8E8" stroke-width="0.807692"/>
<path d="M16.5842 17.6633L24.7911 27.9121C25.3938 28.6648 26.1512 29.2711 27.009 29.6876C27.8668 30.1042 28.8037 30.3206 29.7526 30.3213H37.5082L28.8193 19.4532C28.3705 18.8925 27.8061 18.441 27.1669 18.1312C26.5277 17.8214 25.8296 17.6611 25.1228 17.6619L16.5842 17.6633Z" fill="#41D7FF"/>
<path d="M25.4221 3.30615L3.7771 30.3226H11.5342C12.4836 30.3202 13.4208 30.1031 14.2793 29.6867C15.1377 29.2703 15.8964 28.6649 16.5013 27.9134L28.1053 13.4019C28.8618 12.4421 29.2746 11.2446 29.2746 10.0097C29.2746 8.77483 28.8618 7.57735 28.1053 6.61752L25.4221 3.30615Z" fill="#F241CD"/>
<path d="M20.6125 22.7269L24.6716 17.6631H16.5842L20.6125 22.7269Z" fill="#3D36CC"/>
<path d="M182.859 26.6145V21.1711H176.731V19.2268H182.856V14.0562H184.971V26.6145H182.859ZM173.06 26.6145V14.0562H175.168V26.6145H173.06Z" fill="#F241CD"/>
<path d="M197.954 14.0562H200.024V21.034C200.024 24.8997 198.176 26.7286 193.455 26.7286C188.778 26.7286 186.884 24.8997 186.884 21.034V14.0562H189.067V21.034C189.067 23.55 190.159 24.5792 193.499 24.5792C196.838 24.5792 197.932 23.55 197.932 21.034V14.0562H197.954Z" fill="#F241CD"/>
<path d="M205.621 21.1247V19.2944H210.885C212.087 19.2944 212.666 18.8613 212.666 17.7845C212.666 16.4579 211.641 16.2529 210.06 16.2529H204.091V24.3957H210.261C211.775 24.3957 212.889 23.9626 212.889 22.7486C212.889 21.7194 212.243 21.1247 211.04 21.1247H205.621ZM201.946 26.5465V14.0574H210.856C213.245 14.0574 214.791 15.1559 214.791 17.2836C214.791 18.8613 214.012 19.6625 213.104 19.9598C214.218 20.325 215.02 21.3095 215.02 22.7732C215.02 25.0597 213.482 26.5465 211.1 26.5465H201.946Z" fill="#F241CD"/>
<path fill-rule="evenodd" clip-rule="evenodd" d="M63.8604 9.62451H68.8205L80.6663 26.7299H75.255L66.2063 13.2376L57.7281 25.6805H67.2281V26.7299H52.1665L63.8604 9.62451Z" fill="#253D98"/>
<path fill-rule="evenodd" clip-rule="evenodd" d="M84.3333 9.62451H88.2715V23.4257H100.688V26.7299H84.3333V9.62451Z" fill="#253D98"/>
<path d="M108.715 9.62451H104.776V26.7285H108.715V9.62451Z" fill="#253D98"/>
<path fill-rule="evenodd" clip-rule="evenodd" d="M163.399 26.7299H161.204L147.465 15.1516V26.7299H143.948V9.62451H146.623L159.881 21.2331V9.62451H163.399V26.7299Z" fill="#253D98"/>
<path fill-rule="evenodd" clip-rule="evenodd" d="M123.806 9.62451H128.766L140.612 26.7299H135.199L126.15 13.2376L117.674 25.6805H127.174V26.7299H112.112L123.806 9.62451Z" fill="#253D98"/>
<path fill-rule="evenodd" clip-rule="evenodd" d="M166.975 3.68433H166.375C165.68 3.76313 165.04 4.11244 164.588 4.66045C164.136 5.20846 163.906 5.91353 163.944 6.63073C163.982 7.34793 164.287 8.02277 164.795 8.51652C165.303 9.01028 165.976 9.28544 166.675 9.28544C167.374 9.28544 168.047 9.01028 168.555 8.51652C169.063 8.02277 169.368 7.34793 169.406 6.63073C169.444 5.91353 169.214 5.20846 168.762 4.66045C168.31 4.11244 167.67 3.76313 166.975 3.68433ZM166.674 3.94272C166.187 3.94272 165.71 4.09115 165.304 4.36926C164.899 4.64737 164.583 5.04269 164.396 5.50526C164.209 5.96783 164.16 6.47689 164.255 6.96815C164.349 7.45941 164.584 7.91082 164.928 8.26534C165.272 8.61986 165.711 8.86158 166.19 8.95998C166.668 9.05838 167.164 9.00905 167.614 8.81819C168.065 8.62733 168.451 8.30353 168.723 7.88769C168.994 7.47185 169.14 6.98262 169.141 6.48182C169.142 6.1486 169.079 5.81846 168.955 5.51035C168.832 5.20224 168.65 4.92222 168.421 4.68633C168.192 4.45044 167.919 4.26332 167.62 4.13572C167.32 4.00811 166.999 3.94253 166.674 3.94272Z" fill="#253D98"/>
<path fill-rule="evenodd" clip-rule="evenodd" d="M166.105 7.98191H165.661V4.97223H166.912C167.072 4.96858 167.232 4.98309 167.39 5.01553C167.498 5.0389 167.6 5.08404 167.69 5.14833C167.782 5.22574 167.853 5.32484 167.898 5.43703C167.95 5.55565 167.975 5.68408 167.974 5.81378C167.976 5.93509 167.955 6.05555 167.913 6.16888C167.875 6.27127 167.812 6.36217 167.731 6.43305C167.689 6.47206 167.641 6.5055 167.591 6.53264C167.529 6.56126 167.466 6.58537 167.401 6.60481C167.481 6.64475 167.558 6.69312 167.629 6.74916C167.69 6.79732 167.741 6.85771 167.779 6.92671C167.821 7.00576 167.85 7.09098 167.866 7.17932C167.888 7.29709 167.901 7.41622 167.907 7.53588C167.907 7.62537 167.917 7.69465 167.92 7.74229C167.921 7.78103 167.925 7.81961 167.932 7.85777C167.936 7.8814 167.942 7.9046 167.95 7.92706C167.959 7.9492 167.969 7.97046 167.981 7.99056H167.525C167.518 7.97454 167.512 7.95817 167.506 7.94149C167.498 7.91668 167.493 7.891 167.491 7.86498C167.491 7.78992 167.481 7.73219 167.48 7.69321C167.478 7.65424 167.48 7.60948 167.467 7.55752C167.458 7.42225 167.431 7.2888 167.388 7.16055C167.356 7.06062 167.299 6.97108 167.222 6.90074C167.142 6.82946 167.045 6.77985 166.941 6.75639C166.807 6.72559 166.67 6.71152 166.532 6.71452H166.098L166.105 7.98191ZM166.882 6.33055C166.984 6.33303 167.085 6.3253 167.184 6.30746C167.246 6.29744 167.304 6.27107 167.353 6.23095C167.405 6.18106 167.446 6.11998 167.472 6.0521C167.498 5.98422 167.509 5.91122 167.505 5.83833C167.507 5.74973 167.49 5.66173 167.457 5.57994C167.43 5.50885 167.381 5.44927 167.317 5.41104C167.269 5.38621 167.217 5.37056 167.163 5.36486C167.07 5.35486 166.976 5.35053 166.882 5.35187H166.105V6.33777L166.882 6.33055Z" fill="#253D98"/>
</svg>
