<svg width="20" height="20" viewBox="0 0 20 20" fill="none" xmlns="http://www.w3.org/2000/svg">
<path d="M7.47368 20L7.05263 16.7895C6.77193 16.7018 6.48702 16.5702 6.1979 16.3947C5.90807 16.2193 5.64035 16.0351 5.39474 15.8421L2.42105 17.1053L0 12.8947L2.57895 10.9474C2.54386 10.7895 2.52211 10.6316 2.51368 10.4737C2.50456 10.3158 2.5 10.1579 2.5 10C2.5 9.85965 2.50456 9.71053 2.51368 9.55263C2.52211 9.39474 2.54386 9.22807 2.57895 9.05263L0 7.10526L2.42105 2.92105L5.39474 4.15789C5.64035 3.96491 5.90807 3.78526 6.1979 3.61895C6.48702 3.45193 6.77193 3.31579 7.05263 3.21053L7.47368 0H12.3158L12.7368 3.21053C13.0526 3.33333 13.3375 3.46912 13.5916 3.61789C13.8463 3.76737 14.1053 3.94737 14.3684 4.15789L17.3684 2.92105L19.7895 7.10526L17.1842 9.07895C17.2193 9.25439 17.2368 9.41228 17.2368 9.55263V10C17.2368 10.1404 17.2323 10.2849 17.2232 10.4337C17.2147 10.5832 17.193 10.7544 17.1579 10.9474L19.7368 12.8947L17.3158 17.1053L14.3684 15.8421C14.1053 16.0526 13.8379 16.2368 13.5663 16.3947C13.294 16.5526 13.0175 16.6842 12.7368 16.7895L12.3158 20H7.47368ZM9.89474 13.1579C10.7719 13.1579 11.5175 12.8509 12.1316 12.2368C12.7456 11.6228 13.0526 10.8772 13.0526 10C13.0526 9.12281 12.7456 8.37719 12.1316 7.76316C11.5175 7.14912 10.7719 6.84211 9.89474 6.84211C9.01754 6.84211 8.27193 7.14912 7.6579 7.76316C7.04386 8.37719 6.73684 9.12281 6.73684 10C6.73684 10.8772 7.04386 11.6228 7.6579 12.2368C8.27193 12.8509 9.01754 13.1579 9.89474 13.1579ZM9.89474 11.5789C9.45614 11.5789 9.08351 11.4253 8.77684 11.1179C8.46947 10.8112 8.31579 10.4386 8.31579 10C8.31579 9.5614 8.46947 9.18877 8.77684 8.8821C9.08351 8.57474 9.45614 8.42105 9.89474 8.42105C10.3333 8.42105 10.706 8.57474 11.0126 8.8821C11.32 9.18877 11.4737 9.5614 11.4737 10C11.4737 10.4386 11.32 10.8112 11.0126 11.1179C10.706 11.4253 10.3333 11.5789 9.89474 11.5789ZM8.8421 18.4211H10.9211L11.2895 15.6053C11.8333 15.4649 12.3246 15.2632 12.7632 15C13.2018 14.7368 13.6316 14.4035 14.0526 14L16.6579 15.1053L17.7105 13.3158L15.4211 11.6053C15.5088 11.3246 15.566 11.0526 15.5926 10.7895C15.6186 10.5263 15.6316 10.2632 15.6316 10C15.6316 9.7193 15.6186 9.45193 15.5926 9.1979C15.566 8.94316 15.5088 8.68421 15.4211 8.42105L17.7105 6.68421L16.6842 4.89474L14.0263 6C13.6754 5.63158 13.2544 5.30246 12.7632 5.01263C12.2719 4.72351 11.7807 4.51754 11.2895 4.39474L10.9474 1.57895H8.86842L8.5 4.39474C7.97369 4.51754 7.48246 4.71053 7.02632 4.97368C6.57018 5.23684 6.13158 5.57018 5.71053 5.97368L3.10526 4.89474L2.07895 6.68421L4.34211 8.36842C4.25439 8.63158 4.19298 8.89474 4.1579 9.1579C4.12281 9.42105 4.10526 9.70175 4.10526 10C4.10526 10.2807 4.12281 10.5526 4.1579 10.8158C4.19298 11.0789 4.25439 11.3421 4.34211 11.6053L2.07895 13.3158L3.10526 15.1053L5.71053 14C6.11404 14.4035 6.54386 14.7368 7 15C7.45614 15.2632 7.95614 15.4649 8.5 15.6053L8.8421 18.4211Z" fill="#F4F5F7"/>
</svg>
