<svg width="121" height="120" viewBox="0 0 121 120" fill="none" xmlns="http://www.w3.org/2000/svg">
<path d="M60.2223 15.0004C85.2319 15.0426 105.557 35.3678 105.5 60.2694C105.443 84.9845 84.8691 105.07 59.6746 105C34.6971 104.93 14.4184 84.5765 14.5002 59.6221C14.5536 35.0371 35.131 14.9441 60.2223 15.0004ZM55.5982 75.8561C56.0995 75.9034 56.6052 75.8395 57.0784 75.6691C57.5516 75.4988 57.9804 75.2262 58.3336 74.8712C66.5788 66.7243 74.8193 58.5691 83.055 50.4058C84.4031 49.0656 84.5347 47.4369 83.6312 45.9032C82.3116 43.6624 79.3948 43.483 77.2926 45.5514C70.463 52.2866 63.6478 59.037 56.8467 65.8027C55.9681 66.6786 55.4772 66.6856 54.6164 65.8027C51.8669 62.9885 49.0533 60.213 46.2148 57.4763C44.4683 55.7948 42.2451 55.8089 40.6978 57.4024C39.2359 58.9045 39.275 61.1346 40.8756 62.7457C44.8666 66.7418 48.9039 70.6992 52.9163 74.6742C53.2502 75.0512 53.6622 75.3528 54.1243 75.5585C54.5864 75.7643 55.0878 75.8694 55.5946 75.8667L55.5982 75.8561Z" fill="#4BAE4F"/>
</svg>
