<svg width="256" height="196" viewBox="0 0 256 196" fill="none" xmlns="http://www.w3.org/2000/svg">
<g filter="url(#filter0_d_4594_171108)">
<path d="M8 14C8 9.58172 11.5817 6 16 6H240C244.418 6 248 9.58172 248 14V178C248 182.418 244.418 186 240 186H16C11.5817 186 8 182.418 8 178V14Z" fill="white"/>
<rect x="16.5" y="14.5" width="223" height="163" rx="4.5" stroke="#F1F1F1"/>
<path d="M38.7686 170V22" stroke="#EBEBEB" stroke-width="0.5"/>
<path d="M85.8848 170V22" stroke="#EBEBEB" stroke-width="0.5"/>
<path d="M133 170V22" stroke="#EBEBEB" stroke-width="0.5"/>
<path d="M180.115 170V22" stroke="#EBEBEB" stroke-width="0.5"/>
<path d="M227.231 170V22" stroke="#EBEBEB" stroke-width="0.5"/>
<g clip-path="url(#clip0_4594_171108)">
<path d="M25.8604 28.4839C25.0723 28.4839 24.5098 27.9771 24.4482 27.3003L24.4453 27.2681H24.9521L24.9551 27.2915C25.0049 27.6958 25.3711 28.0181 25.8662 28.0181C26.4287 28.0181 26.8154 27.6167 26.8154 27.0454V27.0396C26.8154 26.4771 26.4229 26.0757 25.875 26.0757C25.5938 26.0757 25.3535 26.1606 25.1719 26.3335C25.0986 26.4038 25.0312 26.4858 24.9785 26.5854H24.5215L24.7441 24.1567H27.0967V24.6284H25.1602L25.0166 26.0581H25.0635C25.251 25.7739 25.582 25.6187 25.9658 25.6187C26.7598 25.6187 27.3311 26.2134 27.3311 27.0308V27.0366C27.3311 27.8892 26.7188 28.4839 25.8604 28.4839ZM29.5957 28.4839C28.6611 28.4839 28.1045 27.6313 28.1045 26.272V26.2661C28.1045 24.9067 28.6611 24.0571 29.5957 24.0571C30.5303 24.0571 31.0928 24.9067 31.0928 26.2661V26.272C31.0928 27.6313 30.5303 28.4839 29.5957 28.4839ZM29.5957 28.0239C30.2021 28.0239 30.5625 27.3501 30.5625 26.272V26.2661C30.5625 25.188 30.2021 24.52 29.5957 24.52C28.9893 24.52 28.6348 25.188 28.6348 26.2661V26.272C28.6348 27.3501 28.9893 28.0239 29.5957 28.0239ZM31.9922 28.3843V23.9722H32.502V26.606H32.5488L33.9141 25.2261H34.5322L33.1553 26.5532L34.623 28.3843H33.9814L32.7979 26.8989L32.502 27.186V28.3843H31.9922Z" fill="#646464"/>
<path d="M26.4023 52.4771V51.6011H24.3428V51.1206C24.9141 50.1626 25.5615 49.1313 26.1533 48.2495H26.918V51.1294H27.5186V51.6011H26.918V52.4771H26.4023ZM24.8818 51.1323H26.4053V48.7388H26.3701C25.8955 49.4478 25.3418 50.3208 24.8818 51.0972V51.1323ZM29.748 52.5767C28.8135 52.5767 28.2568 51.7241 28.2568 50.3647V50.3589C28.2568 48.9995 28.8135 48.1499 29.748 48.1499C30.6826 48.1499 31.2451 48.9995 31.2451 50.3589V50.3647C31.2451 51.7241 30.6826 52.5767 29.748 52.5767ZM29.748 52.1167C30.3545 52.1167 30.7148 51.4429 30.7148 50.3647V50.3589C30.7148 49.2808 30.3545 48.6128 29.748 48.6128C29.1416 48.6128 28.7871 49.2808 28.7871 50.3589V50.3647C28.7871 51.4429 29.1416 52.1167 29.748 52.1167ZM32.1445 52.4771V48.0649H32.6543V50.6987H32.7012L34.0664 49.3188H34.6846L33.3076 50.646L34.7754 52.4771H34.1338L32.9502 50.9917L32.6543 51.2788V52.4771H32.1445Z" fill="#646464"/>
<path d="M25.9102 76.6396C25.0371 76.6396 24.4717 76.1533 24.416 75.4854L24.4131 75.4502H24.9199L24.9229 75.4795C24.9639 75.8955 25.3477 76.1826 25.9102 76.1826C26.4639 76.1826 26.8418 75.8721 26.8418 75.4238V75.418C26.8418 74.8994 26.4697 74.6094 25.8779 74.6094H25.3477V74.1641H25.8545C26.3584 74.1641 26.71 73.8535 26.71 73.4316V73.4258C26.71 72.9834 26.4199 72.7285 25.9043 72.7285C25.4062 72.7285 25.0518 72.9922 25.0078 73.4199L25.0049 73.4492H24.498L24.501 73.4199C24.5684 72.7314 25.1133 72.2715 25.9043 72.2715C26.71 72.2715 27.2402 72.7197 27.2402 73.3613V73.3672C27.2402 73.8887 26.8711 74.2461 26.3438 74.3574V74.3691C26.959 74.4219 27.3779 74.8057 27.3779 75.4062V75.4121C27.3779 76.1182 26.7568 76.6396 25.9102 76.6396ZM29.6484 76.6689C28.7139 76.6689 28.1572 75.8164 28.1572 74.457V74.4512C28.1572 73.0918 28.7139 72.2422 29.6484 72.2422C30.583 72.2422 31.1455 73.0918 31.1455 74.4512V74.457C31.1455 75.8164 30.583 76.6689 29.6484 76.6689ZM29.6484 76.209C30.2549 76.209 30.6152 75.5352 30.6152 74.457V74.4512C30.6152 73.373 30.2549 72.7051 29.6484 72.7051C29.042 72.7051 28.6875 73.373 28.6875 74.4512V74.457C28.6875 75.5352 29.042 76.209 29.6484 76.209ZM32.0449 76.5693V72.1572H32.5547V74.791H32.6016L33.9668 73.4111H34.585L33.208 74.7383L34.6758 76.5693H34.0342L32.8506 75.084L32.5547 75.3711V76.5693H32.0449Z" fill="#646464"/>
<path d="M24.4717 100.662V100.299L25.9014 98.752C26.4404 98.1689 26.5986 97.9492 26.5986 97.5801V97.5742C26.5986 97.1289 26.2969 96.7949 25.7988 96.7949C25.292 96.7949 24.9551 97.126 24.9551 97.624L24.9521 97.6299L24.4482 97.627L24.4424 97.624C24.4453 96.874 25.0254 96.335 25.834 96.335C26.5723 96.335 27.1377 96.8359 27.1377 97.5186V97.5244C27.1377 98.0078 26.9297 98.3594 26.165 99.1475L25.2041 100.141V100.188H27.208V100.662H24.4717ZM29.5078 100.762C28.5732 100.762 28.0166 99.9092 28.0166 98.5498V98.5439C28.0166 97.1846 28.5732 96.335 29.5078 96.335C30.4424 96.335 31.0049 97.1846 31.0049 98.5439V98.5498C31.0049 99.9092 30.4424 100.762 29.5078 100.762ZM29.5078 100.302C30.1143 100.302 30.4746 99.6279 30.4746 98.5498V98.5439C30.4746 97.4658 30.1143 96.7979 29.5078 96.7979C28.9014 96.7979 28.5469 97.4658 28.5469 98.5439V98.5498C28.5469 99.6279 28.9014 100.302 29.5078 100.302ZM31.9043 100.662V96.25H32.4141V98.8838H32.4609L33.8262 97.5039H34.4443L33.0674 98.8311L34.5352 100.662H33.8936L32.71 99.1768L32.4141 99.4639V100.662H31.9043Z" fill="#646464"/>
<path d="M25.5059 124.754V121.113H25.459L24.3838 121.892V121.335L25.5088 120.527H26.0332V124.754H25.5059ZM28.6699 124.854C27.7354 124.854 27.1787 124.001 27.1787 122.642V122.636C27.1787 121.277 27.7354 120.427 28.6699 120.427C29.6045 120.427 30.167 121.277 30.167 122.636V122.642C30.167 124.001 29.6045 124.854 28.6699 124.854ZM28.6699 124.394C29.2764 124.394 29.6367 123.72 29.6367 122.642V122.636C29.6367 121.558 29.2764 120.89 28.6699 120.89C28.0635 120.89 27.709 121.558 27.709 122.636V122.642C27.709 123.72 28.0635 124.394 28.6699 124.394ZM31.0664 124.754V120.342H31.5762V122.976H31.623L32.9883 121.596H33.6064L32.2295 122.923L33.6973 124.754H33.0557L31.8721 123.269L31.5762 123.556V124.754H31.0664Z" fill="#646464"/>
<path d="M25.8867 148.947C24.9521 148.947 24.3955 148.094 24.3955 146.735V146.729C24.3955 145.37 24.9521 144.52 25.8867 144.52C26.8213 144.52 27.3838 145.37 27.3838 146.729V146.735C27.3838 148.094 26.8213 148.947 25.8867 148.947ZM25.8867 148.487C26.4932 148.487 26.8535 147.813 26.8535 146.735V146.729C26.8535 145.651 26.4932 144.983 25.8867 144.983C25.2803 144.983 24.9258 145.651 24.9258 146.729V146.735C24.9258 147.813 25.2803 148.487 25.8867 148.487ZM28.2832 148.847V144.435H28.793V147.069H28.8398L30.2051 145.689H30.8232L29.4463 147.016L30.9141 148.847H30.2725L29.0889 147.362L28.793 147.649V148.847H28.2832Z" fill="#646464"/>
<path d="M39 26.7686L232 26.7686" stroke="#EBEBEB" stroke-width="0.5"/>
<path d="M39 50.8613L232 50.8613" stroke="#EBEBEB" stroke-width="0.5"/>
<path d="M39 74.9536L232 74.9536" stroke="#EBEBEB" stroke-width="0.5"/>
<path d="M39 99.0464L232 99.0464" stroke="#EBEBEB" stroke-width="0.5"/>
<path d="M39 123.139L232 123.139" stroke="#EBEBEB" stroke-width="0.5"/>
<path d="M39 147.231L232 147.231" stroke="#EBEBEB" stroke-width="0.5"/>
</g>
<path d="M50 60.4478C50 59.3432 50.8954 58.4478 52 58.4478H72C73.1046 58.4478 74 59.3432 74 60.4478V156.746H50V60.4478Z" fill="#D9F3EE"/>
<path d="M97 29C97 27.8954 97.8954 27 99 27H119C120.105 27 121 27.8954 121 29V157H97V29Z" fill="#AFDFD7"/>
<path d="M144 48.2983C144 47.1938 144.895 46.2983 146 46.2983H166C167.105 46.2983 168 47.1938 168 48.2983V156.746H144V48.2983Z" fill="#8DCEC3"/>
<path d="M191 64.8657C191 63.7612 191.895 62.8657 193 62.8657H213C214.105 62.8657 215 63.7612 215 64.8657V156.746H191V64.8657Z" fill="#0E9888"/>
<rect width="189" height="10" transform="translate(38 160)" fill="white"/>
<path d="M46.1357 167.257V163.03H46.6484L48.9424 166.32H48.9893V163.03H49.5107V167.257H48.998L46.7041 163.979H46.6572V167.257H46.1357ZM51.8223 167.313C50.9229 167.313 50.3662 166.692 50.3662 165.681V165.675C50.3662 164.662 50.9229 164.043 51.8223 164.043C52.7217 164.043 53.2783 164.662 53.2783 165.675V165.681C53.2783 166.692 52.7217 167.313 51.8223 167.313ZM51.8223 166.862C52.4199 166.862 52.7568 166.425 52.7568 165.681V165.675C52.7568 164.928 52.4199 164.495 51.8223 164.495C51.2246 164.495 50.8877 164.928 50.8877 165.675V165.681C50.8877 166.425 51.2246 166.862 51.8223 166.862ZM55.1914 167.281C54.541 167.281 54.2686 167.041 54.2686 166.437V164.521H53.7705V164.099H54.2686V163.282H54.7959V164.099H55.4873V164.521H54.7959V166.308C54.7959 166.68 54.9248 166.83 55.2529 166.83C55.3438 166.83 55.3936 166.827 55.4873 166.818V167.251C55.3877 167.269 55.291 167.281 55.1914 167.281ZM59.0205 167.313C58.3174 167.313 57.834 166.973 57.7754 166.452H58.2969C58.3818 166.715 58.6338 166.888 59.0381 166.888C59.4629 166.888 59.7646 166.686 59.7646 166.399V166.393C59.7646 166.179 59.6035 166.03 59.2139 165.936L58.7246 165.819C58.1328 165.678 57.8662 165.42 57.8662 164.966V164.963C57.8662 164.439 58.3701 164.043 59.041 164.043C59.7031 164.043 60.1631 164.375 60.2334 164.89H59.7324C59.665 164.641 59.4189 164.468 59.0381 164.468C58.6631 164.468 58.3877 164.662 58.3877 164.94V164.946C58.3877 165.16 58.5459 165.294 58.918 165.385L59.4043 165.502C59.999 165.646 60.2861 165.904 60.2861 166.355V166.361C60.2861 166.923 59.7383 167.313 59.0205 167.313ZM62.1699 167.281C61.5195 167.281 61.2471 167.041 61.2471 166.437V164.521H60.749V164.099H61.2471V163.282H61.7744V164.099H62.4658V164.521H61.7744V166.308C61.7744 166.68 61.9033 166.83 62.2314 166.83C62.3223 166.83 62.3721 166.827 62.4658 166.818V167.251C62.3662 167.269 62.2695 167.281 62.1699 167.281ZM64.0947 167.313C63.4941 167.313 63.04 166.95 63.04 166.375V166.37C63.04 165.807 63.4561 165.482 64.1914 165.438L65.0967 165.382V165.095C65.0967 164.706 64.8594 164.495 64.3877 164.495C64.0098 164.495 63.7607 164.635 63.6787 164.881L63.6758 164.89H63.166L63.1689 164.873C63.251 164.377 63.7314 164.043 64.4053 164.043C65.1758 164.043 65.6064 164.439 65.6064 165.095V167.257H65.0967V166.792H65.0498C64.8506 167.128 64.5195 167.313 64.0947 167.313ZM63.5615 166.364C63.5615 166.683 63.834 166.871 64.2002 166.871C64.7188 166.871 65.0967 166.531 65.0967 166.08V165.792L64.2529 165.845C63.7725 165.875 63.5615 166.044 63.5615 166.358V166.364ZM66.5381 167.257V164.099H67.0479V164.568H67.0947C67.2148 164.237 67.5107 164.043 67.9385 164.043C68.0352 164.043 68.1436 164.055 68.1934 164.064V164.559C68.0879 164.542 67.9912 164.53 67.8799 164.53C67.3936 164.53 67.0479 164.837 67.0479 165.3V167.257H66.5381ZM70.0039 167.281C69.3535 167.281 69.0811 167.041 69.0811 166.437V164.521H68.583V164.099H69.0811V163.282H69.6084V164.099H70.2998V164.521H69.6084V166.308C69.6084 166.68 69.7373 166.83 70.0654 166.83C70.1562 166.83 70.2061 166.827 70.2998 166.818V167.251C70.2002 167.269 70.1035 167.281 70.0039 167.281ZM72.3037 167.313C71.4014 167.313 70.8564 166.68 70.8564 165.69V165.687C70.8564 164.711 71.4131 164.043 72.2715 164.043C73.1299 164.043 73.6514 164.682 73.6514 165.625V165.825H71.3779C71.3926 166.478 71.7529 166.859 72.3154 166.859C72.7432 166.859 73.0068 166.657 73.0918 166.466L73.1035 166.44H73.6133L73.6074 166.463C73.499 166.891 73.0479 167.313 72.3037 167.313ZM72.2686 164.498C71.7998 164.498 71.4424 164.817 71.3867 165.417H73.1328C73.0801 164.793 72.7344 164.498 72.2686 164.498ZM75.6084 167.313C74.8086 167.313 74.2842 166.666 74.2842 165.681V165.675C74.2842 164.685 74.8057 164.043 75.6084 164.043C76.042 164.043 76.4199 164.26 76.5928 164.597H76.6396V162.845H77.1494V167.257H76.6396V166.753H76.5928C76.3994 167.105 76.0479 167.313 75.6084 167.313ZM75.7256 166.862C76.2998 166.862 76.6514 166.411 76.6514 165.681V165.675C76.6514 164.946 76.2998 164.495 75.7256 164.495C75.1484 164.495 74.8057 164.94 74.8057 165.675V165.681C74.8057 166.417 75.1484 166.862 75.7256 166.862Z" fill="#646464"/>
<path d="M100.323 167.257L101.882 163.03H102.403L103.962 167.257H103.408L102.983 166.047H101.302L100.877 167.257H100.323ZM102.119 163.712L101.457 165.599H102.828L102.166 163.712H102.119ZM105.755 167.313C104.87 167.313 104.305 166.671 104.305 165.669V165.664C104.305 164.682 104.867 164.043 105.752 164.043C106.52 164.043 106.979 164.486 107.073 165.048L107.076 165.066H106.569L106.566 165.057C106.487 164.747 106.206 164.495 105.752 164.495C105.184 164.495 104.826 164.952 104.826 165.664V165.669C104.826 166.396 105.189 166.862 105.752 166.862C106.177 166.862 106.446 166.674 106.563 166.323L106.569 166.305L107.073 166.302L107.067 166.334C106.938 166.906 106.514 167.313 105.755 167.313ZM109.001 167.281C108.351 167.281 108.078 167.041 108.078 166.437V164.521H107.58V164.099H108.078V163.282H108.605V164.099H109.297V164.521H108.605V166.308C108.605 166.68 108.734 166.83 109.062 166.83C109.153 166.83 109.203 166.827 109.297 166.818V167.251C109.197 167.269 109.101 167.281 109.001 167.281ZM110.328 163.49C110.135 163.49 109.977 163.332 109.977 163.138C109.977 162.945 110.135 162.787 110.328 162.787C110.521 162.787 110.68 162.945 110.68 163.138C110.68 163.332 110.521 163.49 110.328 163.49ZM110.07 167.257V164.099H110.58V167.257H110.07ZM112.435 167.257L111.266 164.099H111.805L112.669 166.701H112.716L113.58 164.099H114.119L112.95 167.257H112.435ZM115.965 167.313C115.062 167.313 114.518 166.68 114.518 165.69V165.687C114.518 164.711 115.074 164.043 115.933 164.043C116.791 164.043 117.312 164.682 117.312 165.625V165.825H115.039C115.054 166.478 115.414 166.859 115.977 166.859C116.404 166.859 116.668 166.657 116.753 166.466L116.765 166.44H117.274L117.269 166.463C117.16 166.891 116.709 167.313 115.965 167.313ZM115.93 164.498C115.461 164.498 115.104 164.817 115.048 165.417H116.794C116.741 164.793 116.396 164.498 115.93 164.498Z" fill="#646464"/>
<path d="M149.246 167.257V163.03H150.696C151.95 163.03 152.691 163.812 152.691 165.139V165.145C152.691 166.475 151.953 167.257 150.696 167.257H149.246ZM149.773 166.783H150.661C151.604 166.783 152.152 166.179 152.152 165.151V165.145C152.152 164.114 151.599 163.504 150.661 163.504H149.773V166.783ZM154.839 167.313C153.939 167.313 153.383 166.692 153.383 165.681V165.675C153.383 164.662 153.939 164.043 154.839 164.043C155.738 164.043 156.295 164.662 156.295 165.675V165.681C156.295 166.692 155.738 167.313 154.839 167.313ZM154.839 166.862C155.437 166.862 155.773 166.425 155.773 165.681V165.675C155.773 164.928 155.437 164.495 154.839 164.495C154.241 164.495 153.904 164.928 153.904 165.675V165.681C153.904 166.425 154.241 166.862 154.839 166.862ZM157.086 167.257V164.099H157.596V164.574H157.643C157.801 164.24 158.097 164.043 158.562 164.043C159.271 164.043 159.667 164.462 159.667 165.212V167.257H159.157V165.335C159.157 164.767 158.923 164.495 158.419 164.495C157.915 164.495 157.596 164.834 157.596 165.388V167.257H157.086ZM161.879 167.313C160.977 167.313 160.432 166.68 160.432 165.69V165.687C160.432 164.711 160.988 164.043 161.847 164.043C162.705 164.043 163.227 164.682 163.227 165.625V165.825H160.953C160.968 166.478 161.328 166.859 161.891 166.859C162.318 166.859 162.582 166.657 162.667 166.466L162.679 166.44H163.188L163.183 166.463C163.074 166.891 162.623 167.313 161.879 167.313ZM161.844 164.498C161.375 164.498 161.018 164.817 160.962 165.417H162.708C162.655 164.793 162.31 164.498 161.844 164.498Z" fill="#646464"/>
<path d="M195.811 167.357C194.662 167.357 193.944 166.507 193.944 165.148V165.142C193.944 163.78 194.659 162.93 195.808 162.93C196.698 162.93 197.393 163.49 197.519 164.301L197.516 164.307H196.985L196.982 164.301C196.842 163.759 196.391 163.417 195.808 163.417C194.996 163.417 194.486 164.084 194.486 165.142V165.148C194.486 166.206 194.996 166.871 195.811 166.871C196.399 166.871 196.848 166.569 196.979 166.083L196.985 166.077H197.519V166.083C197.378 166.856 196.71 167.357 195.811 167.357ZM198.368 167.257V162.845H198.878V167.257H198.368ZM201.154 167.313C200.255 167.313 199.698 166.692 199.698 165.681V165.675C199.698 164.662 200.255 164.043 201.154 164.043C202.054 164.043 202.61 164.662 202.61 165.675V165.681C202.61 166.692 202.054 167.313 201.154 167.313ZM201.154 166.862C201.752 166.862 202.089 166.425 202.089 165.681V165.675C202.089 164.928 201.752 164.495 201.154 164.495C200.557 164.495 200.22 164.928 200.22 165.675V165.681C200.22 166.425 200.557 166.862 201.154 166.862ZM204.485 167.313C203.782 167.313 203.299 166.973 203.24 166.452H203.762C203.847 166.715 204.099 166.888 204.503 166.888C204.928 166.888 205.229 166.686 205.229 166.399V166.393C205.229 166.179 205.068 166.03 204.679 165.936L204.189 165.819C203.598 165.678 203.331 165.42 203.331 164.966V164.963C203.331 164.439 203.835 164.043 204.506 164.043C205.168 164.043 205.628 164.375 205.698 164.89H205.197C205.13 164.641 204.884 164.468 204.503 164.468C204.128 164.468 203.853 164.662 203.853 164.94V164.946C203.853 165.16 204.011 165.294 204.383 165.385L204.869 165.502C205.464 165.646 205.751 165.904 205.751 166.355V166.361C205.751 166.923 205.203 167.313 204.485 167.313ZM207.831 167.313C206.929 167.313 206.384 166.68 206.384 165.69V165.687C206.384 164.711 206.94 164.043 207.799 164.043C208.657 164.043 209.179 164.682 209.179 165.625V165.825H206.905C206.92 166.478 207.28 166.859 207.843 166.859C208.271 166.859 208.534 166.657 208.619 166.466L208.631 166.44H209.141L209.135 166.463C209.026 166.891 208.575 167.313 207.831 167.313ZM207.796 164.498C207.327 164.498 206.97 164.817 206.914 165.417H208.66C208.607 164.793 208.262 164.498 207.796 164.498ZM211.136 167.313C210.336 167.313 209.812 166.666 209.812 165.681V165.675C209.812 164.685 210.333 164.043 211.136 164.043C211.569 164.043 211.947 164.26 212.12 164.597H212.167V162.845H212.677V167.257H212.167V166.753H212.12C211.927 167.105 211.575 167.313 211.136 167.313ZM211.253 166.862C211.827 166.862 212.179 166.411 212.179 165.681V165.675C212.179 164.946 211.827 164.495 211.253 164.495C210.676 164.495 210.333 164.94 210.333 165.675V165.681C210.333 166.417 210.676 166.862 211.253 166.862Z" fill="#646464"/>
</g>
<defs>
<filter id="filter0_d_4594_171108" x="0" y="0" width="256" height="196" filterUnits="userSpaceOnUse" color-interpolation-filters="sRGB">
<feFlood flood-opacity="0" result="BackgroundImageFix"/>
<feColorMatrix in="SourceAlpha" type="matrix" values="0 0 0 0 0 0 0 0 0 0 0 0 0 0 0 0 0 0 127 0" result="hardAlpha"/>
<feOffset dy="2"/>
<feGaussianBlur stdDeviation="4"/>
<feColorMatrix type="matrix" values="0 0 0 0 0 0 0 0 0 0 0 0 0 0 0 0 0 0 0.08 0"/>
<feBlend mode="normal" in2="BackgroundImageFix" result="effect1_dropShadow_4594_171108"/>
<feBlend mode="normal" in="SourceGraphic" in2="effect1_dropShadow_4594_171108" result="shape"/>
</filter>
<clipPath id="clip0_4594_171108">
<rect width="208" height="130" fill="white" transform="translate(24 22)"/>
</clipPath>
</defs>
</svg>
