<svg width="256" height="196" viewBox="0 0 256 196" fill="none" xmlns="http://www.w3.org/2000/svg">
<g filter="url(#filter0_d_4594_171286)">
<path d="M8 14C8 9.58172 11.5817 6 16 6H240C244.418 6 248 9.58172 248 14V178C248 182.418 244.418 186 240 186H16C11.5817 186 8 182.418 8 178V14Z" fill="white"/>
<rect x="16.5" y="14.5" width="223" height="163" rx="4.5" stroke="#F1F1F1"/>
<path d="M30.6123 95.5489V25.3062" stroke="#EBEBEB" stroke-width="0.5"/>
<path d="M69.5674 95.5489V25.3062" stroke="#EBEBEB" stroke-width="0.5"/>
<path d="M108.522 95.5489V25.3062" stroke="#EBEBEB" stroke-width="0.5"/>
<path d="M147.478 95.5489V25.3062" stroke="#EBEBEB" stroke-width="0.5"/>
<path d="M186.433 95.5489V25.3062" stroke="#EBEBEB" stroke-width="0.5"/>
<path d="M225.388 95.5489V25.3062" stroke="#EBEBEB" stroke-width="0.5"/>
<path d="M30.6093 103.972C29.519 103.972 28.8696 102.977 28.8696 101.391V101.384C28.8696 99.7983 29.519 98.8071 30.6093 98.8071C31.6996 98.8071 32.3559 99.7983 32.3559 101.384V101.391C32.3559 102.977 31.6996 103.972 30.6093 103.972ZM30.6093 103.435C31.3168 103.435 31.7372 102.649 31.7372 101.391V101.384C31.7372 100.126 31.3168 99.3472 30.6093 99.3472C29.9018 99.3472 29.4882 100.126 29.4882 101.384V101.391C29.4882 102.649 29.9018 103.435 30.6093 103.435Z" fill="#646464"/>
<path d="M67.4965 103.855V99.6069H67.4418L66.1874 100.516V99.8667L67.4999 98.9233H68.1117V103.855H67.4965ZM71.1879 103.972C70.0976 103.972 69.4482 102.977 69.4482 101.391V101.384C69.4482 99.7983 70.0976 98.8071 71.1879 98.8071C72.2782 98.8071 72.9345 99.7983 72.9345 101.384V101.391C72.9345 102.977 72.2782 103.972 71.1879 103.972ZM71.1879 103.435C71.8954 103.435 72.3158 102.649 72.3158 101.391V101.384C72.3158 100.126 71.8954 99.3472 71.1879 99.3472C70.4804 99.3472 70.0668 100.126 70.0668 101.384V101.391C70.0668 102.649 70.4804 103.435 71.1879 103.435Z" fill="#646464"/>
<path d="M104.756 103.855V103.432L106.424 101.627C107.053 100.947 107.238 100.69 107.238 100.26V100.253C107.238 99.7334 106.886 99.3438 106.305 99.3438C105.713 99.3438 105.32 99.73 105.32 100.311L105.317 100.318L104.729 100.314L104.722 100.311C104.726 99.436 105.402 98.8071 106.346 98.8071C107.207 98.8071 107.867 99.3916 107.867 100.188V100.195C107.867 100.759 107.624 101.169 106.732 102.088L105.611 103.247V103.302H107.949V103.855H104.756ZM110.632 103.972C109.541 103.972 108.892 102.977 108.892 101.391V101.384C108.892 99.7983 109.541 98.8071 110.632 98.8071C111.722 98.8071 112.378 99.7983 112.378 101.384V101.391C112.378 102.977 111.722 103.972 110.632 103.972ZM110.632 103.435C111.339 103.435 111.76 102.649 111.76 101.391V101.384C111.76 100.126 111.339 99.3472 110.632 99.3472C109.924 99.3472 109.511 100.126 109.511 101.384V101.391C109.511 102.649 109.924 103.435 110.632 103.435Z" fill="#646464"/>
<path d="M145.308 103.938C144.289 103.938 143.629 103.37 143.564 102.591L143.561 102.55H144.152L144.156 102.584C144.204 103.069 144.651 103.404 145.308 103.404C145.954 103.404 146.394 103.042 146.394 102.519V102.512C146.394 101.907 145.96 101.569 145.27 101.569H144.651V101.049H145.243C145.83 101.049 146.241 100.687 146.241 100.195V100.188C146.241 99.6719 145.902 99.3745 145.301 99.3745C144.72 99.3745 144.306 99.6821 144.255 100.181L144.251 100.215H143.66L143.663 100.181C143.742 99.3779 144.378 98.8413 145.301 98.8413C146.241 98.8413 146.859 99.3643 146.859 100.113V100.12C146.859 100.728 146.429 101.145 145.813 101.275V101.289C146.531 101.35 147.02 101.798 147.02 102.499V102.505C147.02 103.329 146.295 103.938 145.308 103.938ZM149.669 103.972C148.579 103.972 147.929 102.977 147.929 101.391V101.384C147.929 99.7983 148.579 98.8071 149.669 98.8071C150.759 98.8071 151.415 99.7983 151.415 101.384V101.391C151.415 102.977 150.759 103.972 149.669 103.972ZM149.669 103.435C150.376 103.435 150.797 102.649 150.797 101.391V101.384C150.797 100.126 150.376 99.3472 149.669 99.3472C148.961 99.3472 148.548 100.126 148.548 101.384V101.391C148.548 102.649 148.961 103.435 149.669 103.435Z" fill="#646464"/>
<path d="M184.778 103.855V102.833H182.375V102.273C183.041 101.155 183.797 99.9521 184.487 98.9233H185.379V102.283H186.08V102.833H185.379V103.855H184.778ZM183.004 102.287H184.781V99.4941H184.74C184.186 100.321 183.54 101.34 183.004 102.246V102.287ZM188.681 103.972C187.591 103.972 186.941 102.977 186.941 101.391V101.384C186.941 99.7983 187.591 98.8071 188.681 98.8071C189.771 98.8071 190.428 99.7983 190.428 101.384V101.391C190.428 102.977 189.771 103.972 188.681 103.972ZM188.681 103.435C189.389 103.435 189.809 102.649 189.809 101.391V101.384C189.809 100.126 189.389 99.3472 188.681 99.3472C187.974 99.3472 187.56 100.126 187.56 101.384V101.391C187.56 102.649 187.974 103.435 188.681 103.435Z" fill="#646464"/>
<path d="M223.189 103.972C222.27 103.972 221.614 103.38 221.542 102.591L221.538 102.553H222.13L222.133 102.581C222.191 103.052 222.619 103.428 223.196 103.428C223.852 103.428 224.304 102.96 224.304 102.293V102.287C224.304 101.63 223.846 101.162 223.206 101.162C222.878 101.162 222.598 101.261 222.386 101.463C222.301 101.545 222.222 101.641 222.161 101.757H221.627L221.887 98.9233H224.632V99.4736H222.372L222.205 101.142H222.26C222.478 100.81 222.865 100.629 223.312 100.629C224.239 100.629 224.905 101.323 224.905 102.276V102.283C224.905 103.278 224.191 103.972 223.189 103.972ZM227.547 103.972C226.457 103.972 225.808 102.977 225.808 101.391V101.384C225.808 99.7983 226.457 98.8071 227.547 98.8071C228.638 98.8071 229.294 99.7983 229.294 101.384V101.391C229.294 102.977 228.638 103.972 227.547 103.972ZM227.547 103.435C228.255 103.435 228.675 102.649 228.675 101.391V101.384C228.675 100.126 228.255 99.3472 227.547 99.3472C226.84 99.3472 226.426 100.126 226.426 101.384V101.391C226.426 102.649 226.84 103.435 227.547 103.435Z" fill="#646464"/>
<path d="M24 88.9365L232 88.9365" stroke="#EBEBEB" stroke-width="0.5"/>
<g clip-path="url(#clip0_4594_171286)">
<rect x="24" y="36.0015" width="73" height="42.9372" rx="3" fill="#E1F0FF" stroke="white" stroke-width="1.5"/>
<rect x="96.9971" y="36.0015" width="77" height="42.9372" rx="3" fill="#B7D9F8" stroke="white" stroke-width="1.5"/>
<rect x="174" y="36.0015" width="20" height="42.9372" rx="3" fill="#5EB0EF" stroke="white" stroke-width="1.5"/>
<rect x="194.003" y="36.0015" width="37" height="42.9372" rx="3" fill="#0880EA" stroke="white" stroke-width="1.5"/>
</g>
</g>
<defs>
<filter id="filter0_d_4594_171286" x="0" y="0" width="256" height="196" filterUnits="userSpaceOnUse" color-interpolation-filters="sRGB">
<feFlood flood-opacity="0" result="BackgroundImageFix"/>
<feColorMatrix in="SourceAlpha" type="matrix" values="0 0 0 0 0 0 0 0 0 0 0 0 0 0 0 0 0 0 127 0" result="hardAlpha"/>
<feOffset dy="2"/>
<feGaussianBlur stdDeviation="4"/>
<feColorMatrix type="matrix" values="0 0 0 0 0 0 0 0 0 0 0 0 0 0 0 0 0 0 0.08 0"/>
<feBlend mode="normal" in2="BackgroundImageFix" result="effect1_dropShadow_4594_171286"/>
<feBlend mode="normal" in="SourceGraphic" in2="effect1_dropShadow_4594_171286" result="shape"/>
</filter>
<clipPath id="clip0_4594_171286">
<rect width="208" height="98" fill="white" transform="translate(24 22)"/>
</clipPath>
</defs>
</svg>
