<svg width="256" height="196" viewBox="0 0 256 196" fill="none" xmlns="http://www.w3.org/2000/svg">
<g filter="url(#filter0_d_4594_171285)">
<path d="M8 14C8 9.58172 11.5817 6 16 6H240C244.418 6 248 9.58172 248 14V178C248 182.418 244.418 186 240 186H16C11.5817 186 8 182.418 8 178V14Z" fill="white"/>
<rect x="16.5" y="14.5" width="223" height="163" rx="4.5" stroke="#F1F1F1"/>
<path d="M196 94C197.105 94 198.003 93.1043 197.971 92.0002C197.728 83.4895 195.934 75.0886 192.672 67.2122C189.154 58.7194 183.998 51.0026 177.497 44.5025C170.997 38.0024 163.281 32.8463 154.788 29.3284C146.911 26.0659 138.511 24.2718 130 24.0286C128.896 23.997 128 24.8954 128 26L128 92C128 93.1046 128.895 94 130 94L196 94Z" fill="#0880EA" stroke="white" stroke-width="2" stroke-linejoin="round"/>
<path d="M189 94C190.105 94 191.003 93.1043 190.968 92.0003C190.727 84.409 189.115 76.9181 186.204 69.8909C183.038 62.2474 178.398 55.3024 172.548 49.4523C166.698 43.6022 159.753 38.9616 152.109 35.7956C145.082 32.8849 137.591 31.2728 130 31.0317C128.896 30.9967 128 31.8954 128 33L128 92C128 93.1046 128.895 94 130 94L189 94Z" fill="#0880EA" stroke="white" stroke-width="2" stroke-linejoin="round"/>
<path d="M128 33C128 31.8954 127.104 30.9967 126 31.0317C111.825 31.4816 98.214 36.7028 87.3748 45.8482C86.5306 46.5605 86.4655 47.8279 87.2042 48.6491L125.385 91.0928C126.304 92.115 128 91.4645 128 90.0896L128 33Z" fill="#5EB0EF" stroke="white" stroke-width="2" stroke-linejoin="round"/>
<path d="M72.2721 118.807C71.263 119.257 70.0776 118.804 69.6606 117.781C64.9021 106.107 63.7494 93.258 66.3776 80.8976C69.0057 68.5372 75.2864 57.2684 84.3828 48.5409C85.1798 47.7762 86.447 47.8447 87.186 48.6656L126.158 91.9543C127.067 92.9641 126.726 94.567 125.485 95.1196L72.2721 118.807Z" fill="#96C7F2" stroke="white" stroke-width="2" stroke-linejoin="round"/>
<path d="M97.5033 146.829C96.9511 147.786 95.7259 148.117 94.7872 147.534C84.6411 141.24 76.4916 132.19 71.2908 121.442C70.8097 120.448 71.2662 119.264 72.2753 118.814L123.783 95.878C125.11 95.2869 126.418 96.7397 125.692 97.9982L97.5033 146.829Z" fill="#B7D9F8" stroke="white" stroke-width="2" stroke-linejoin="round"/>
<path d="M189 94C190.105 94 191.003 94.8957 190.968 95.9997C190.639 106.364 187.756 116.499 182.561 125.497C177.033 135.074 169.081 143.026 159.506 148.556C149.93 154.086 139.068 156.998 128.01 157C117.62 157.002 107.401 154.434 98.2593 149.538C97.2856 149.017 96.959 147.791 97.5111 146.834L127.423 95.0004C127.78 94.3814 128.44 94 129.155 94L189 94Z" fill="#CEE7FE" stroke="white" stroke-width="2" stroke-linejoin="round"/>
</g>
<defs>
<filter id="filter0_d_4594_171285" x="0" y="0" width="256" height="196" filterUnits="userSpaceOnUse" color-interpolation-filters="sRGB">
<feFlood flood-opacity="0" result="BackgroundImageFix"/>
<feColorMatrix in="SourceAlpha" type="matrix" values="0 0 0 0 0 0 0 0 0 0 0 0 0 0 0 0 0 0 127 0" result="hardAlpha"/>
<feOffset dy="2"/>
<feGaussianBlur stdDeviation="4"/>
<feColorMatrix type="matrix" values="0 0 0 0 0 0 0 0 0 0 0 0 0 0 0 0 0 0 0.08 0"/>
<feBlend mode="normal" in2="BackgroundImageFix" result="effect1_dropShadow_4594_171285"/>
<feBlend mode="normal" in="SourceGraphic" in2="effect1_dropShadow_4594_171285" result="shape"/>
</filter>
</defs>
</svg>
