<svg width="17" height="18" viewBox="0 0 17 18" fill="none" xmlns="http://www.w3.org/2000/svg">
<path d="M15.5455 3.27273H12.2727V2.45455C12.2727 1.80356 12.0141 1.17924 11.5538 0.71892C11.0935 0.258603 10.4692 0 9.81818 0H6.54545C5.89447 0 5.27015 0.258603 4.80983 0.71892C4.34951 1.17924 4.09091 1.80356 4.09091 2.45455V3.27273H0.818182C0.601187 3.27273 0.393079 3.35893 0.23964 3.51237C0.086201 3.66581 0 3.87391 0 4.09091C0 4.3079 0.086201 4.51601 0.23964 4.66945C0.393079 4.82289 0.601187 4.90909 0.818182 4.90909H1.63636V15.5455C1.63636 16.1964 1.89497 16.8208 2.35528 17.2811C2.8156 17.7414 3.43992 18 4.09091 18H12.2727C12.9237 18 13.548 17.7414 14.0084 17.2811C14.4687 16.8208 14.7273 16.1964 14.7273 15.5455V4.90909H15.5455C15.7625 4.90909 15.9706 4.82289 16.124 4.66945C16.2774 4.51601 16.3636 4.3079 16.3636 4.09091C16.3636 3.87391 16.2774 3.66581 16.124 3.51237C15.9706 3.35893 15.7625 3.27273 15.5455 3.27273ZM5.72727 2.45455C5.72727 2.23755 5.81347 2.02944 5.96691 1.876C6.12035 1.72256 6.32846 1.63636 6.54545 1.63636H9.81818C10.0352 1.63636 10.2433 1.72256 10.3967 1.876C10.5502 2.02944 10.6364 2.23755 10.6364 2.45455V3.27273H5.72727V2.45455ZM13.0909 15.5455C13.0909 15.7625 13.0047 15.9706 12.8513 16.124C12.6978 16.2774 12.4897 16.3636 12.2727 16.3636H4.09091C3.87391 16.3636 3.66581 16.2774 3.51237 16.124C3.35893 15.9706 3.27273 15.7625 3.27273 15.5455V4.90909H13.0909V15.5455ZM7.36364 8.18182V13.0909C7.36364 13.3079 7.27744 13.516 7.124 13.6695C6.97056 13.8229 6.76245 13.9091 6.54545 13.9091C6.32846 13.9091 6.12035 13.8229 5.96691 13.6695C5.81347 13.516 5.72727 13.3079 5.72727 13.0909V8.18182C5.72727 7.96482 5.81347 7.75672 5.96691 7.60328C6.12035 7.44984 6.32846 7.36364 6.54545 7.36364C6.76245 7.36364 6.97056 7.44984 7.124 7.60328C7.27744 7.75672 7.36364 7.96482 7.36364 8.18182ZM10.6364 8.18182V13.0909C10.6364 13.3079 10.5502 13.516 10.3967 13.6695C10.2433 13.8229 10.0352 13.9091 9.81818 13.9091C9.60119 13.9091 9.39308 13.8229 9.23964 13.6695C9.0862 13.516 9 13.3079 9 13.0909V8.18182C9 7.96482 9.0862 7.75672 9.23964 7.60328C9.39308 7.44984 9.60119 7.36364 9.81818 7.36364C10.0352 7.36364 10.2433 7.44984 10.3967 7.60328C10.5502 7.75672 10.6364 7.96482 10.6364 8.18182Z" fill="#7A7A8C"/>
</svg>
