<svg width="18" height="18" viewBox="0 0 18 18" fill="none" xmlns="http://www.w3.org/2000/svg">
<path d="M16.1376 16.1231V15.878C16.1376 13.5896 16.1376 11.3011 16.1376 9.01271C16.1351 8.81786 16.1936 8.62708 16.3048 8.46711C16.4161 8.30714 16.5747 8.18599 16.7582 8.12062C17.1294 7.99184 17.5518 8.09579 17.7814 8.42276C17.8935 8.58257 17.9858 8.79783 17.987 8.98866C18.0002 11.4904 18.0023 13.9922 17.9932 16.4939C17.9932 17.3267 17.2873 17.9977 16.4347 17.9984C13.9203 18.0005 11.4058 18.0005 8.89111 17.9984H1.63798C0.657059 17.9984 1.13124e-05 17.3391 1.13124e-05 16.357C1.13124e-05 13.9072 1.13124e-05 11.4572 1.13124e-05 9.00689C-0.00107814 8.78508 0.0765545 8.57007 0.219096 8.40011C0.361638 8.23016 0.559846 8.11627 0.778463 8.07872C0.991317 8.04316 1.20991 8.08323 1.39631 8.19198C1.58271 8.30073 1.72516 8.4713 1.79894 8.6741C1.8414 8.80215 1.86225 8.93638 1.86061 9.07128C1.86449 11.3403 1.8654 13.6093 1.86333 15.8784V16.1231H16.1376Z" fill="#253D98"/>
<path d="M8.06999 11.0874V10.831C8.06999 7.54166 8.06999 4.25189 8.06999 0.961738C8.06999 0.535083 8.3159 0.181348 8.69524 0.0506362C8.8768 -0.0119131 9.07329 -0.0166305 9.25765 0.0371345C9.44201 0.0908996 9.60516 0.200502 9.72463 0.350846C9.87745 0.539349 9.93215 0.757719 9.93215 0.999749C9.92982 4.27646 9.92982 7.55329 9.93215 10.8303V11.089C10.0062 11.0192 10.0551 10.9753 10.1013 10.9292C10.6869 10.3447 11.2649 9.75276 11.8587 9.17678C12.3664 8.6838 13.1829 8.88472 13.3931 9.54758C13.5005 9.88619 13.4389 10.2019 13.1914 10.4641C12.9563 10.7131 12.7104 10.9521 12.4684 11.1941C11.5634 12.0991 10.6584 13.0041 9.75334 13.9092C9.25803 14.4037 8.74488 14.4041 8.25229 13.9092C7.1223 12.781 5.99425 11.652 4.86814 10.5223C4.3418 9.99285 4.52643 9.15971 5.21722 8.9491C5.58958 8.83507 5.91538 8.93553 6.18961 9.21208C6.75848 9.78457 7.32968 10.3558 7.90321 10.9257C7.94432 10.9703 7.99126 11.0126 8.06999 11.0874Z" fill="#253D98"/>
</svg>
