<svg width="18" height="18" viewBox="0 0 18 18" fill="none" xmlns="http://www.w3.org/2000/svg">
<path d="M13.8339 18H2.44127C1.7938 18 1.17286 17.7431 0.715031 17.2858C0.257204 16.8285 0 16.2083 0 15.5616V4.18241C0 3.53571 0.257204 2.9155 0.715031 2.45821C1.17286 2.00092 1.7938 1.74402 2.44127 1.74402H8.13756C8.35339 1.74402 8.56037 1.82965 8.71298 1.98208C8.86559 2.13451 8.95132 2.34125 8.95132 2.55682C8.95132 2.77238 8.86559 2.97912 8.71298 3.13155C8.56037 3.28398 8.35339 3.36962 8.13756 3.36962H2.44127C2.22545 3.36962 2.01847 3.45525 1.86586 3.60768C1.71325 3.76011 1.62751 3.96685 1.62751 4.18241V15.5616C1.62751 15.7772 1.71325 15.9839 1.86586 16.1363C2.01847 16.2888 2.22545 16.3744 2.44127 16.3744H13.8339C14.0497 16.3744 14.2567 16.2888 14.4093 16.1363C14.5619 15.9839 14.6476 15.7772 14.6476 15.5616V9.872C14.6476 9.65644 14.7334 9.4497 14.886 9.29727C15.0386 9.14484 15.2456 9.05921 15.4614 9.05921C15.6772 9.05921 15.8842 9.14484 16.0368 9.29727C16.1894 9.4497 16.2751 9.65644 16.2751 9.872V15.5616C16.2751 16.2083 16.0179 16.8285 15.5601 17.2858C15.1023 17.7431 14.4813 18 13.8339 18Z" fill="#7A7A8C"/>
<path d="M5.6964 13.1232C5.5893 13.1238 5.48314 13.1033 5.38399 13.0629C5.28484 13.0224 5.19467 12.9628 5.11863 12.8875C5.01262 12.7841 4.93688 12.6538 4.8996 12.5105C4.86231 12.3673 4.86489 12.2166 4.90705 12.0747L5.72081 8.82351C5.75514 8.67929 5.8283 8.54718 5.93239 8.4415L13.6631 0.719911C14.1475 0.257835 14.7916 0 15.4615 0C16.1313 0 16.7754 0.257835 17.2599 0.719911C17.734 1.19784 17.9999 1.84341 17.9999 2.5162C17.9999 3.18898 17.734 3.83455 17.2599 4.31248L9.52919 12.0341C9.42338 12.138 9.29112 12.2111 9.14672 12.2454L5.8917 13.0582C5.82962 13.088 5.76399 13.1099 5.6964 13.1232ZM7.24253 9.47375L6.81124 11.1969L8.53641 10.7661L16.1043 3.19895C16.1895 3.11502 16.2571 3.01504 16.3032 2.90482C16.3493 2.79459 16.3731 2.67631 16.3731 2.55684C16.3731 2.43736 16.3493 2.31908 16.3032 2.20885C16.2571 2.09863 16.1895 1.99865 16.1043 1.91472C15.9325 1.74693 15.7018 1.65297 15.4615 1.65297C15.2212 1.65297 14.9904 1.74693 14.8186 1.91472L7.24253 9.47375Z" fill="#7A7A8C"/>
</svg>
