<svg width="20" height="18" viewBox="0 0 20 18" fill="none" xmlns="http://www.w3.org/2000/svg">
<path d="M8.5068 8.70764C9.37204 8.72772 10.2236 8.4895 10.9529 8.0234C11.6821 7.5573 12.2559 6.88446 12.601 6.09077C12.9462 5.29708 13.0469 4.41856 12.8905 3.56734C12.7341 2.71613 12.3275 1.93084 11.7228 1.31172C11.118 0.692597 10.3425 0.267736 9.49515 0.0913707C8.64783 -0.0849947 7.76719 -0.00486298 6.96562 0.321534C6.16406 0.647932 5.47794 1.20579 4.99485 1.92389C4.51177 2.64199 4.25363 3.48776 4.2534 4.35324C4.24599 4.91864 4.35021 5.47995 4.5601 6.00501C4.76998 6.53007 5.0814 7.00856 5.47652 7.41306C5.87164 7.81756 6.34269 8.14012 6.86268 8.36227C7.38267 8.58442 7.94138 8.70178 8.5068 8.70764ZM8.5068 2.17603C8.93921 2.16712 9.36448 2.28719 9.72838 2.52094C10.0923 2.75468 10.3783 3.09152 10.55 3.48848C10.7217 3.88544 10.7713 4.32455 10.6924 4.7498C10.6135 5.17505 10.4098 5.56717 10.1072 5.87617C9.80454 6.18516 9.41674 6.39702 8.99323 6.48473C8.56971 6.57244 8.12967 6.53203 7.72922 6.36865C7.32876 6.20526 6.98604 5.92631 6.74476 5.56736C6.50349 5.20841 6.37458 4.78574 6.37449 4.35324C6.38317 3.79042 6.61062 3.25309 7.00863 2.85507C7.40665 2.45705 7.94399 2.22961 8.5068 2.22092V2.17603ZM2.12109 15.2841C2.33432 14.5996 4.85943 13.4548 7.39575 13.1743L9.56174 10.9522C9.21164 10.9098 8.85944 10.8873 8.5068 10.8848C5.66746 10.8848 0 12.3438 0 15.2392V17.4613H9.56174L7.44065 15.2841H2.12109Z" fill="#7A7A8C"/>
<path d="M19.0786 10.8287L17.586 9.29119L14.8252 12.0856L12.0644 9.29119L10.583 10.8287L13.2989 13.6344L10.583 16.3952L12.1317 18L14.8252 15.2168L17.5186 18L19.0786 16.3952L16.3627 13.6344L19.0786 10.8287Z" fill="#7A7A8C"/>
</svg>
