<svg width="54" height="54" viewBox="0 0 54 54" fill="none" xmlns="http://www.w3.org/2000/svg">
<rect width="54" height="54" rx="12" fill="white"/>
<path d="M27.5 24.8788C28.266 24.8788 29.0246 24.7252 29.7323 24.4267C30.44 24.1282 31.0831 23.6907 31.6248 23.1392C32.1664 22.5877 32.5961 21.9329 32.8893 21.2123C33.1824 20.4917 33.3333 19.7194 33.3333 18.9394C33.3333 18.1594 33.1824 17.3871 32.8893 16.6665C32.5961 15.9459 32.1664 15.2911 31.6248 14.7396C31.0831 14.1881 30.44 13.7506 29.7323 13.4521C29.0246 13.1536 28.266 13 27.5 13C25.9529 13 24.4692 13.6258 23.3752 14.7396C22.2812 15.8535 21.6667 17.3642 21.6667 18.9394C21.6667 20.5146 22.2812 22.0253 23.3752 23.1392C24.4692 24.253 25.9529 24.8788 27.5 24.8788ZM15 39.9817V41H40V39.9817C40 36.1805 40 34.28 39.2733 32.8274C38.6342 31.5502 37.6144 30.5119 36.3599 29.8611C34.9333 29.1212 33.0667 29.1212 29.3333 29.1212H25.6667C21.9333 29.1212 20.0667 29.1212 18.64 29.8611C17.3856 30.5119 16.3658 31.5502 15.7267 32.8274C15 34.28 15 36.1805 15 39.9817Z" stroke="#535358" stroke-width="2" stroke-linecap="round" stroke-linejoin="round"/>
</svg>