<svg width="20" height="20" viewBox="0 0 20 20" fill="none" xmlns="http://www.w3.org/2000/svg">
<path d="M10.0922 0.00449915C10.9035 -0.0288048 11.7361 0.127862 12.5635 0.306578C13.0818 0.418216 13.4026 0.947328 13.282 1.43235C13.1407 1.99523 12.5889 2.34704 12.057 2.23493C9.79535 1.75929 7.62796 1.96288 5.67448 3.27252C3.69555 4.59999 2.46014 6.44437 2.09357 8.81505C1.4311 13.0836 4.41975 17.1758 8.70176 17.8836C13.0884 18.6088 17.23 15.6752 17.965 11.3269C18.0437 10.863 18.0592 10.3958 18.088 9.92862C18.1327 9.18843 18.8781 8.76674 19.5401 9.11291C19.8323 9.26583 20 9.50928 20 9.84794C20 11.7467 19.5538 13.532 18.5436 15.1484C16.944 17.7105 14.6583 19.3171 11.6645 19.8452C6.39725 20.774 1.40564 17.4328 0.243734 12.2341C-0.934197 6.96644 2.26508 1.72411 7.51582 0.319713C8.35528 0.0936722 9.22272 -0.0124592 10.0922 0.00449915Z" fill="#2AB67C"/>
<path d="M10.0517 13.9936C9.92785 14.0025 9.80359 13.9842 9.68766 13.94C9.57172 13.8958 9.46696 13.8268 9.38073 13.7379C8.35404 12.7168 7.32312 11.6994 6.30444 10.6707C5.91101 10.2739 5.93174 9.69691 6.32234 9.30523C6.71294 8.91356 7.27883 8.88307 7.6944 9.2677C8.40587 9.92769 9.10131 10.6055 9.80713 11.2716C10.0832 11.5319 10.0107 11.5343 10.2571 11.2538C12.2549 8.97907 14.2495 6.7022 16.241 4.42314C16.5096 4.11512 16.8325 4.01553 17.2097 4.12435C17.6079 4.23834 17.9245 4.46349 17.9777 4.91239C17.997 5.07192 17.9815 5.23372 17.932 5.38667C17.8825 5.53963 17.8004 5.6801 17.6913 5.79846C16.4169 7.25102 15.1417 8.70295 13.8658 10.1543C12.8481 11.3113 11.8303 12.4683 10.8126 13.6254C10.6081 13.8613 10.3659 14.0147 10.0517 13.9936Z" fill="#2AB67C"/>
</svg>
