<svg width="12" height="13" viewBox="0 0 12 13" fill="none" xmlns="http://www.w3.org/2000/svg">
<path d="M5.90936 12.9992C4.11688 12.9992 2.32439 12.9992 0.531914 12.9987C0.174088 12.9987 0.00041949 12.8255 0.00041949 12.4689C0 8.49006 0 4.5112 0 0.532333C0 0.174508 0.173669 0.00083898 0.529816 0.00083898C1.62552 0.00041949 2.72123 0 3.81652 0C4.91181 0 6.00794 0 7.10323 0.00083898C7.46021 0.00083898 7.63388 0.174508 7.6343 0.531494C7.6343 1.59448 7.6343 2.65789 7.6343 3.72088V5.36486H9.83327C10.2632 5.36486 10.6932 5.36486 11.1232 5.3657C11.4852 5.36612 11.6614 5.54398 11.6614 5.90936C11.6614 8.09532 11.6614 10.2813 11.6614 12.4677C11.6614 12.8255 11.4882 12.9996 11.1316 12.9996C9.39071 12.9996 7.64982 13 5.90894 13L5.90936 12.9992ZM7.64647 12.0738H10.7238V6.30116H7.64647V12.0738ZM3.81736 10.069C4.08835 10.069 4.27251 10.2666 4.27544 10.5607C4.27754 10.8002 4.27712 11.0439 4.2767 11.2801C4.2767 11.4173 4.27628 11.5544 4.2767 11.6912C4.2767 11.7348 4.27922 11.7768 4.28174 11.817C4.28258 11.8347 4.28383 11.8527 4.28467 11.8712L4.2939 12.0712H6.70135V0.928751H0.933785V12.0683H3.35886V11.8586C3.35886 11.7231 3.35886 11.5888 3.35844 11.455C3.35802 11.1471 3.35718 10.8564 3.3597 10.5598C3.36179 10.2662 3.54595 10.069 3.81736 10.069ZM3.39829 6.29109C3.31607 6.29109 3.23343 6.29067 3.15121 6.289C2.89364 6.28438 2.70152 6.10274 2.68432 5.84769C2.67635 5.72898 2.71788 5.60816 2.79884 5.51671C2.87225 5.43366 2.97083 5.385 3.07612 5.37954C3.3211 5.36696 3.56944 5.36025 3.81359 5.36025C4.05773 5.36025 4.31488 5.36696 4.56112 5.38038C4.66599 5.38625 4.76415 5.43533 4.83714 5.51839C4.91768 5.61026 4.95921 5.73107 4.94998 5.84937C4.93069 6.104 4.7373 6.2848 4.47974 6.289C4.39542 6.29025 4.3111 6.29067 4.22678 6.29067C4.15631 6.29067 4.08583 6.29067 4.01578 6.29025C3.94614 6.29025 3.87693 6.28984 3.80729 6.28984C3.73556 6.28984 3.6676 6.28983 3.59964 6.29025C3.53253 6.29025 3.46541 6.29109 3.39787 6.29109H3.39829ZM3.82197 3.61181C3.57154 3.61181 3.31901 3.6051 3.07193 3.59126C2.96705 3.58538 2.86931 3.53672 2.79632 3.45324C2.71578 3.36137 2.67467 3.24014 2.6839 3.12143C2.70361 2.86722 2.897 2.68725 3.15457 2.68306C3.23679 2.6818 3.31901 2.68138 3.40123 2.68138C3.47002 2.68138 3.53882 2.68138 3.60803 2.6818C3.67599 2.6818 3.74353 2.68222 3.81149 2.68222C3.8849 2.68222 3.95453 2.68222 4.02375 2.6818C4.09255 2.6818 4.16134 2.68138 4.23014 2.68138C4.31488 2.68138 4.39919 2.6818 4.48351 2.68348C4.74066 2.68809 4.93236 2.86973 4.94956 3.1252C4.95753 3.24392 4.91601 3.36389 4.83504 3.45492C4.76121 3.53798 4.66221 3.58706 4.5565 3.59251C4.31194 3.6051 4.06486 3.61181 3.82156 3.61181H3.82197Z" fill="#253D98"/>
</svg>
