<svg width="15" height="15" viewBox="0 0 15 15" fill="none" xmlns="http://www.w3.org/2000/svg">
<path d="M10.7423 12.9723C10.3616 12.9241 9.95964 12.8785 9.55931 12.8201C9.3565 12.7907 9.20135 12.848 9.06102 12.9866C8.83967 13.2043 8.6125 13.4174 8.37951 13.6245C7.81502 14.1269 7.18011 14.1249 6.61509 13.6199C6.39587 13.424 6.17876 13.2246 5.97224 13.0165C5.81391 12.8566 5.64234 12.783 5.40722 12.8221C5.07785 12.8769 4.74371 12.9054 4.41328 12.9541C3.77149 13.049 3.19217 12.6749 3.05661 12.0609C2.98036 11.7147 2.94435 11.359 2.84745 11.0184C2.80667 10.8753 2.6817 10.7246 2.5509 10.6408C2.28137 10.4688 1.98006 10.3424 1.69465 10.1912C1.02478 9.83694 0.827265 9.24822 1.15505 8.58338C1.29061 8.30882 1.42617 8.03425 1.57497 7.76628C1.67505 7.58612 1.67876 7.4227 1.57815 7.23999C1.42193 6.9568 1.27737 6.66701 1.1381 6.3757C0.838385 5.74639 1.03643 5.16072 1.66499 4.82221C1.94882 4.66944 2.23689 4.52328 2.52972 4.38625C2.72989 4.29287 2.84003 4.15432 2.87339 3.94269C2.92423 3.61737 2.98301 3.29307 3.05185 2.97131C3.19005 2.32322 3.75136 1.95527 4.43341 2.05119C4.76437 2.09788 5.09797 2.12782 5.42787 2.1806C5.64287 2.21511 5.80226 2.15015 5.94841 2.00551C6.1634 1.79337 6.38528 1.58732 6.61033 1.38482C7.18329 0.870207 7.82032 0.87173 8.39434 1.38939C8.6321 1.60356 8.84974 1.84006 9.10127 2.03749C9.21088 2.12376 9.3851 2.18213 9.52542 2.17502C9.87598 2.15726 10.2249 2.09889 10.5728 2.05017C11.239 1.95679 11.8067 2.32322 11.9449 2.95253C12.0211 3.29916 12.0598 3.65391 12.1546 3.99496C12.1922 4.13097 12.3118 4.27561 12.4363 4.35428C12.7074 4.5248 13.0071 4.6532 13.2925 4.80292C13.9794 5.16325 14.1763 5.74892 13.8385 6.42798C13.7061 6.69442 13.5748 6.96188 13.4292 7.22223C13.3238 7.41052 13.3201 7.58155 13.426 7.77238C13.5827 8.05506 13.7278 8.34485 13.8655 8.63667C14.1578 9.25736 13.9624 9.83541 13.3455 10.1709C13.0548 10.3292 12.7588 10.4789 12.4585 10.6205C12.2668 10.7109 12.163 10.8443 12.1302 11.0453C12.0757 11.3783 12.0164 11.7112 11.9454 12.0416C11.8252 12.6029 11.3296 12.9881 10.7423 12.9723ZM4.26131 12.2207C4.55732 12.1791 4.88086 12.1415 5.20123 12.0878C5.70535 12.0025 6.14169 12.104 6.50389 12.4669C6.7173 12.6805 6.94182 12.884 7.16634 13.087C7.4041 13.3022 7.59579 13.3012 7.83409 13.0845C8.07079 12.8693 8.30431 12.6506 8.53519 12.4298C8.82803 12.1497 9.17487 12.0162 9.58897 12.0675C9.93793 12.1106 10.2864 12.1608 10.6343 12.2096C10.9626 12.2552 11.1395 12.138 11.1982 11.8254C11.2565 11.5183 11.3142 11.2113 11.3629 10.9027C11.428 10.4886 11.6489 10.1841 12.0344 9.98868C12.3219 9.84252 12.61 9.69737 12.897 9.54918C13.2391 9.37256 13.2915 9.22386 13.1273 8.89398C12.9907 8.61992 12.8551 8.34536 12.7111 8.07485C12.5083 7.69371 12.5062 7.31561 12.7063 6.93396C12.8525 6.65534 12.996 6.37469 13.1358 6.09302C13.2872 5.788 13.2354 5.62864 12.9293 5.46827C12.628 5.31043 12.323 5.1597 12.0206 5.0044C11.6452 4.81155 11.4307 4.51059 11.365 4.10763C11.3131 3.79094 11.2575 3.47527 11.1961 3.1601C11.1395 2.86981 10.9689 2.74953 10.6719 2.78759C10.3753 2.82514 10.0793 2.86778 9.78437 2.91599C9.29137 2.99668 8.8598 2.9033 8.50448 2.54348C8.29213 2.3288 8.06602 2.12681 7.84256 1.92279C7.59103 1.69339 7.40781 1.6939 7.15522 1.92431C6.9254 2.13442 6.69664 2.34555 6.47318 2.56175C6.17452 2.85052 5.82026 2.98603 5.39663 2.93223C5.05614 2.88909 4.71671 2.84139 4.37727 2.79216C4.03414 2.74242 3.85727 2.85966 3.79743 3.187C3.7413 3.49405 3.68464 3.8016 3.63328 4.10966C3.56656 4.51262 3.35103 4.81256 2.97559 5.00542C2.68858 5.1526 2.39946 5.29673 2.11298 5.44442C1.7566 5.62763 1.70471 5.77379 1.87628 6.11738C2.00919 6.38382 2.13893 6.65179 2.28084 6.91366C2.4916 7.30293 2.49424 7.68661 2.28614 8.07688C2.1421 8.34739 2.00654 8.62195 1.86992 8.89601C1.71 9.21675 1.76031 9.37104 2.08121 9.53801C2.3751 9.69077 2.67164 9.83897 2.96712 9.9897C3.35209 10.1861 3.57185 10.4911 3.63645 10.9052C3.68464 11.2138 3.74289 11.5209 3.80114 11.8274C3.85039 12.0944 3.99177 12.2187 4.26131 12.2207Z" fill="#535358"/>
<path d="M5.00795 10.3424C4.62192 10.3455 4.43341 10.0369 4.58856 9.78618C4.63675 9.70803 4.71035 9.64307 4.77866 9.5776C6.4054 8.017 8.03319 6.45741 9.66098 4.89782C9.72294 4.83845 9.78172 4.77095 9.85427 4.72629C10.0311 4.61768 10.2059 4.62529 10.3568 4.77501C10.4987 4.9161 10.5024 5.07647 10.3986 5.23786C10.3626 5.29419 10.3075 5.34038 10.2578 5.38808C8.60562 6.97203 6.954 8.55648 5.29867 10.1374C5.19806 10.2338 5.06779 10.3008 5.00795 10.3424Z" fill="#535358"/>
<path d="M5.93941 4.13554C6.72789 4.13757 7.36809 4.74912 7.36915 5.50176C7.37021 6.24527 6.721 6.87408 5.9447 6.8822C5.16734 6.89032 4.49165 6.2407 4.50013 5.49364C4.50913 4.73999 5.15199 4.13351 5.93941 4.13554ZM5.28172 5.49821C5.27855 5.83317 5.58621 6.12905 5.93729 6.12854C6.28678 6.12804 6.59603 5.8286 6.59074 5.49618C6.58544 5.16985 6.28996 4.88615 5.94788 4.87803C5.59944 4.86991 5.2849 5.16325 5.28172 5.49821Z" fill="#535358"/>
<path d="M9.07479 10.8662C8.28313 10.8723 7.64398 10.2744 7.63127 9.51568C7.61857 8.76456 8.28154 8.11901 9.06473 8.12053C9.83679 8.12205 10.4924 8.74984 10.4982 9.49386C10.504 10.2394 9.86062 10.8601 9.07479 10.8662ZM9.71659 9.51162C9.72559 9.17869 9.42163 8.87875 9.07002 8.87418C8.71947 8.86962 8.40916 9.16245 8.4081 9.49792C8.40757 9.82273 8.69829 10.11 9.04249 10.1232C9.39092 10.1369 9.70758 9.84962 9.71659 9.51162Z" fill="#535358"/>
<path d="M10.7423 12.9723C10.3616 12.9241 9.95964 12.8785 9.55931 12.8201C9.3565 12.7907 9.20135 12.848 9.06102 12.9866C8.83967 13.2043 8.6125 13.4174 8.37951 13.6245C7.81502 14.1269 7.18011 14.1249 6.61509 13.6199C6.39587 13.424 6.17876 13.2246 5.97224 13.0165C5.81391 12.8566 5.64234 12.783 5.40722 12.8221C5.07785 12.8769 4.74371 12.9054 4.41328 12.9541C3.77149 13.049 3.19217 12.6749 3.05661 12.0609C2.98036 11.7147 2.94435 11.359 2.84745 11.0184C2.80667 10.8753 2.6817 10.7246 2.5509 10.6408C2.28137 10.4688 1.98006 10.3424 1.69465 10.1912C1.02478 9.83694 0.827265 9.24822 1.15505 8.58338C1.29061 8.30882 1.42617 8.03425 1.57497 7.76628C1.67505 7.58612 1.67876 7.4227 1.57815 7.23999C1.42193 6.9568 1.27737 6.66701 1.1381 6.3757C0.838385 5.74639 1.03643 5.16072 1.66499 4.82221C1.94882 4.66944 2.23689 4.52328 2.52972 4.38625C2.72989 4.29287 2.84003 4.15432 2.87339 3.94269C2.92423 3.61737 2.98301 3.29307 3.05185 2.97131C3.19005 2.32322 3.75136 1.95527 4.43341 2.05119C4.76437 2.09788 5.09797 2.12782 5.42787 2.1806C5.64287 2.21511 5.80226 2.15015 5.94841 2.00551C6.1634 1.79337 6.38528 1.58732 6.61033 1.38482C7.18329 0.870207 7.82032 0.87173 8.39434 1.38939C8.6321 1.60356 8.84974 1.84006 9.10127 2.03749C9.21088 2.12376 9.3851 2.18213 9.52542 2.17502C9.87598 2.15726 10.2249 2.09889 10.5728 2.05017C11.239 1.95679 11.8067 2.32322 11.9449 2.95253C12.0211 3.29916 12.0598 3.65391 12.1546 3.99496C12.1922 4.13097 12.3118 4.27561 12.4363 4.35428C12.7074 4.5248 13.0071 4.6532 13.2925 4.80292C13.9794 5.16325 14.1763 5.74892 13.8385 6.42798C13.7061 6.69442 13.5748 6.96188 13.4292 7.22223C13.3238 7.41052 13.3201 7.58155 13.426 7.77238C13.5827 8.05506 13.7278 8.34485 13.8655 8.63667C14.1578 9.25736 13.9624 9.83541 13.3455 10.1709C13.0548 10.3292 12.7588 10.4789 12.4585 10.6205C12.2668 10.7109 12.163 10.8443 12.1302 11.0453C12.0757 11.3783 12.0164 11.7112 11.9454 12.0416C11.8252 12.6029 11.3296 12.9881 10.7423 12.9723ZM4.26131 12.2207C4.55732 12.1791 4.88086 12.1415 5.20123 12.0878C5.70535 12.0025 6.14169 12.104 6.50389 12.4669C6.7173 12.6805 6.94182 12.884 7.16634 13.087C7.4041 13.3022 7.59579 13.3012 7.83409 13.0845C8.07079 12.8693 8.30431 12.6506 8.53519 12.4298C8.82803 12.1497 9.17487 12.0162 9.58897 12.0675C9.93793 12.1106 10.2864 12.1608 10.6343 12.2096C10.9626 12.2552 11.1395 12.138 11.1982 11.8254C11.2565 11.5183 11.3142 11.2113 11.3629 10.9027C11.428 10.4886 11.6489 10.1841 12.0344 9.98868C12.3219 9.84252 12.61 9.69737 12.897 9.54918C13.2391 9.37256 13.2915 9.22386 13.1273 8.89398C12.9907 8.61992 12.8551 8.34536 12.7111 8.07485C12.5083 7.69371 12.5062 7.31561 12.7063 6.93396C12.8525 6.65534 12.996 6.37469 13.1358 6.09302C13.2872 5.788 13.2354 5.62864 12.9293 5.46827C12.628 5.31043 12.323 5.1597 12.0206 5.0044C11.6452 4.81155 11.4307 4.51059 11.365 4.10763C11.3131 3.79094 11.2575 3.47527 11.1961 3.1601C11.1395 2.86981 10.9689 2.74953 10.6719 2.78759C10.3753 2.82514 10.0793 2.86778 9.78437 2.91599C9.29137 2.99668 8.8598 2.9033 8.50448 2.54348C8.29213 2.3288 8.06602 2.12681 7.84256 1.92279C7.59103 1.69339 7.40781 1.6939 7.15522 1.92431C6.9254 2.13442 6.69664 2.34555 6.47318 2.56175C6.17452 2.85052 5.82026 2.98603 5.39663 2.93223C5.05614 2.88909 4.71671 2.84139 4.37727 2.79216C4.03414 2.74242 3.85727 2.85966 3.79743 3.187C3.7413 3.49405 3.68464 3.8016 3.63328 4.10966C3.56656 4.51262 3.35103 4.81256 2.97559 5.00542C2.68858 5.1526 2.39946 5.29673 2.11298 5.44442C1.7566 5.62763 1.70471 5.77379 1.87628 6.11738C2.00919 6.38382 2.13893 6.65179 2.28084 6.91366C2.4916 7.30293 2.49424 7.68661 2.28614 8.07688C2.1421 8.34739 2.00654 8.62195 1.86992 8.89601C1.71 9.21675 1.76031 9.37104 2.08121 9.53801C2.3751 9.69077 2.67164 9.83897 2.96712 9.9897C3.35209 10.1861 3.57185 10.4911 3.63645 10.9052C3.68464 11.2138 3.74289 11.5209 3.80114 11.8274C3.85039 12.0944 3.99177 12.2187 4.26131 12.2207Z" stroke="#535358" stroke-width="0.2" stroke-miterlimit="10"/>
<path d="M5.00795 10.3424C4.62192 10.3455 4.43341 10.0369 4.58856 9.78618C4.63675 9.70803 4.71035 9.64307 4.77866 9.5776C6.4054 8.017 8.03319 6.45741 9.66098 4.89782C9.72294 4.83845 9.78172 4.77095 9.85427 4.72629C10.0311 4.61768 10.2059 4.62529 10.3568 4.77501C10.4987 4.9161 10.5024 5.07647 10.3986 5.23786C10.3626 5.29419 10.3075 5.34038 10.2578 5.38808C8.60562 6.97203 6.954 8.55648 5.29867 10.1374C5.19806 10.2338 5.06779 10.3008 5.00795 10.3424Z" stroke="#535358" stroke-width="0.2" stroke-miterlimit="10"/>
<path d="M5.93941 4.13554C6.72789 4.13757 7.36809 4.74912 7.36915 5.50176C7.37021 6.24527 6.721 6.87408 5.9447 6.8822C5.16734 6.89032 4.49165 6.2407 4.50013 5.49364C4.50913 4.73999 5.15199 4.13351 5.93941 4.13554ZM5.28172 5.49821C5.27855 5.83317 5.58621 6.12905 5.93729 6.12854C6.28678 6.12804 6.59603 5.8286 6.59074 5.49618C6.58544 5.16985 6.28996 4.88615 5.94788 4.87803C5.59944 4.86991 5.2849 5.16325 5.28172 5.49821Z" stroke="#535358" stroke-width="0.2" stroke-miterlimit="10"/>
<path d="M9.07479 10.8662C8.28313 10.8723 7.64398 10.2744 7.63127 9.51568C7.61857 8.76456 8.28154 8.11901 9.06473 8.12053C9.83679 8.12205 10.4924 8.74984 10.4982 9.49386C10.504 10.2394 9.86062 10.8601 9.07479 10.8662ZM9.71659 9.51162C9.72559 9.17869 9.42163 8.87875 9.07002 8.87418C8.71947 8.86962 8.40916 9.16245 8.4081 9.49792C8.40757 9.82273 8.69829 10.11 9.04249 10.1232C9.39092 10.1369 9.70758 9.84962 9.71659 9.51162Z" stroke="#535358" stroke-width="0.2" stroke-miterlimit="10"/>
</svg>
