<svg width="14" height="12" viewBox="0 0 14 12" fill="none" xmlns="http://www.w3.org/2000/svg">
<path d="M7.00023 1.00537C8.77657 1.00537 10.5529 1.01599 12.3293 1.00005C13.0298 0.993804 13.5032 1.53221 13.499 2.21153C13.483 4.73792 13.4927 7.26431 13.4927 9.7907C13.4927 10.5407 13.0533 10.9953 12.3271 10.9953C8.77446 10.9956 5.22178 10.9903 1.66909 11C0.964651 11.0019 0.494824 10.4653 0.499052 9.78852C0.515961 7.25681 0.505695 4.72511 0.505996 2.19372C0.505996 1.46033 0.946232 1.00568 1.65611 1.00568C3.43758 1.00505 5.21875 1.00537 7.00023 1.00537ZM12.5859 2.54057C12.5325 2.5787 12.5035 2.59682 12.4772 2.61869C10.7794 4.0486 9.08154 5.47881 7.38431 6.90965C7.08659 7.16057 6.9178 7.16401 6.6234 6.9159C5.1013 5.6338 3.5795 4.35107 2.05739 3.06866C1.85237 2.89586 1.64614 2.72431 1.42029 2.53495C1.41666 2.61494 1.41274 2.66463 1.41274 2.71431C1.41244 5.06946 1.41244 7.4243 1.41244 9.77945C1.41244 10.021 1.44686 10.0563 1.68449 10.0563C5.22781 10.0563 8.77144 10.0563 12.3148 10.0563C12.5512 10.0563 12.5859 10.0204 12.5859 9.7782C12.5859 7.42836 12.5859 5.07853 12.5859 2.72869C12.5859 2.67713 12.5859 2.62526 12.5859 2.54057ZM2.18632 1.95311C2.24641 2.0103 2.27932 2.04529 2.31555 2.07561C3.84128 3.36114 5.36822 4.64574 6.89213 5.93378C6.97547 6.00409 7.0271 6.00315 7.10923 5.93347C8.62922 4.64855 10.1516 3.36708 11.6734 2.08435C11.7133 2.05092 11.7492 2.01248 11.8117 1.95311C8.58997 1.95311 5.40838 1.95311 2.18632 1.95311Z" fill="#535358" stroke="#535358" stroke-width="0.2" stroke-miterlimit="10"/>
</svg>
