<svg width="12" height="14" viewBox="0 0 12 14" fill="none" xmlns="http://www.w3.org/2000/svg">
<path fill-rule="evenodd" clip-rule="evenodd" d="M11.6241 5.11221L6.29008 0.975706C6.07656 0.810181 5.77617 0.810181 5.56256 0.975706L0.228887 5.11221C0.0845088 5.22414 0 5.39634 0 5.57872V12.0788C0 13.0564 0.797508 13.8516 1.77795 13.8516H10.0748C11.0552 13.8516 11.8527 13.0564 11.8527 12.0788V5.57872C11.8527 5.39634 11.7682 5.22414 11.6241 5.11221ZM7.11161 12.6697H4.7411V7.94244H7.11161V12.6697ZM10.6674 12.0788C10.6674 12.4049 10.4018 12.6697 10.0748 12.6697H8.29692V7.3515C8.29692 7.02516 8.03184 6.76055 7.70427 6.76055H4.14846C3.82114 6.76055 3.55581 7.02516 3.55581 7.3515V12.6697H1.77795C1.45122 12.6697 1.1853 12.4049 1.1853 12.0788V5.86782L5.92632 2.19109L10.6674 5.86782V12.0788Z" fill="#535358"/>
</svg>
