<svg width="15" height="15" viewBox="0 0 15 15" fill="none" xmlns="http://www.w3.org/2000/svg">
<path d="M2.82217 10.3667C2.82217 10.2207 2.82217 10.1121 2.82217 10.0041C2.83775 7.50592 2.85383 5.00865 2.87042 2.51231C2.87702 1.61793 3.4316 1.00899 4.25635 1.00734C7.015 1.00348 9.77365 0.989155 12.5343 1.01561C13.453 1.02442 14.001 1.732 14 2.59387C14 4.05365 14 5.51453 14 6.97377C14 7.34188 13.9091 7.43832 13.5592 7.43942C12.9853 7.43942 12.4114 7.43942 11.7995 7.43942V7.77667C11.7995 9.13598 11.7995 10.4953 11.7995 11.8546C11.7995 13.2179 11.0682 14.0038 9.81073 13.9999C7.46682 13.9999 5.12308 13.9999 2.77951 13.9999C2.54657 14.0025 2.31547 13.9549 2.09962 13.8599C1.88377 13.7648 1.68747 13.6242 1.52211 13.4461C1.35675 13.2681 1.22563 13.0562 1.13635 12.8227C1.04707 12.5892 1.00141 12.3388 1.00203 12.086C0.999323 11.6452 0.999323 11.2043 1.00203 10.7635C1.00203 10.4681 1.097 10.3661 1.36667 10.3639C1.83491 10.3617 2.30873 10.3667 2.82217 10.3667ZM3.38487 10.3667H8.32272C8.75287 10.3667 8.8128 10.4339 8.81381 10.9128C8.81381 11.3167 8.8067 11.7212 8.81788 12.1252C8.84174 12.9771 9.62638 13.5717 10.3755 13.3127C10.9184 13.1248 11.2144 12.6448 11.2144 11.935C11.2144 9.12459 11.2119 6.31414 11.218 3.50644C11.218 2.88263 11.1225 2.23898 11.4821 1.64603C11.3653 1.63887 11.2916 1.6306 11.218 1.6306H4.36198C4.30256 1.6306 4.24314 1.6306 4.18423 1.63556C3.70533 1.6824 3.43617 1.99596 3.43261 2.52113C3.41467 5.03657 3.39774 7.55312 3.38183 10.0708C3.38437 10.1529 3.38487 10.2427 3.38487 10.3667ZM8.23385 10.9999H1.56118C1.56118 11.3448 1.55864 11.6661 1.56118 11.9868C1.56981 12.8449 2.06243 13.3766 2.84909 13.3766C4.69361 13.3766 6.5388 13.3766 8.38468 13.3766H8.71935C8.09469 12.6514 8.27701 11.8083 8.23385 10.9999ZM13.4337 6.79136V5.34701C13.4337 4.43885 13.4398 3.52848 13.4337 2.62252C13.4276 1.91826 12.8573 1.46969 12.3022 1.72979C11.9569 1.89125 11.798 2.19545 11.7985 2.60324C11.7985 3.94233 11.7985 5.28162 11.7985 6.62108C11.7985 6.67619 11.8081 6.72634 11.8142 6.79136H13.4337Z" fill="#535358"/>
<path d="M7.14146 6.56708C6.33753 6.56708 5.5341 6.56708 4.73017 6.56708C4.53364 6.56708 4.38636 6.49709 4.38382 6.26619C4.38128 6.03529 4.51941 5.95319 4.72002 5.95374C5.33756 5.95704 5.95511 5.95374 6.57266 5.95374C7.58837 5.95374 8.60407 5.94878 9.61977 5.96145C9.73928 5.97325 9.8501 6.03416 9.92956 6.13173C9.97375 6.18684 9.96257 6.3742 9.91179 6.4238C9.81787 6.50777 9.70079 6.55529 9.57915 6.55881C8.76607 6.57259 7.95351 6.56763 7.14146 6.56708Z" fill="#535358"/>
<path d="M7.16736 8.77576C6.36343 8.77576 5.56 8.77852 4.75607 8.77246C4.66009 8.77246 4.53211 8.75703 4.47726 8.69145C4.42242 8.62587 4.37569 8.45835 4.40972 8.37679C4.43695 8.32436 4.47443 8.27903 4.51952 8.244C4.56462 8.20896 4.61624 8.18507 4.67075 8.17399C4.89573 8.14369 5.12782 8.16352 5.35483 8.16297H9.49179C9.55934 8.16297 9.64415 8.13542 9.69087 8.17069C9.79701 8.25335 9.9448 8.35419 9.96257 8.46882C9.99101 8.64461 9.86608 8.77135 9.68021 8.77301C9.42628 8.77301 9.17236 8.77301 8.91843 8.77301L7.16736 8.77576Z" fill="#535358"/>
<path d="M6.02469 3.74781C6.4391 3.74781 6.8535 3.75277 7.26791 3.74781C7.47613 3.74395 7.63712 3.8222 7.63255 4.05971C7.62798 4.29722 7.4614 4.36445 7.25674 4.36335C6.42792 4.35839 5.5986 4.36335 4.76826 4.36335C4.50418 4.36335 4.36807 4.25314 4.38026 4.04979C4.39448 3.7963 4.55496 3.74836 4.75455 3.75111C5.17911 3.75387 5.60216 3.74781 6.02469 3.74781Z" fill="#535358"/>
<path d="M2.82217 10.3667C2.82217 10.2207 2.82217 10.1121 2.82217 10.0041C2.83775 7.50592 2.85383 5.00865 2.87042 2.51231C2.87702 1.61793 3.4316 1.00899 4.25635 1.00734C7.015 1.00348 9.77365 0.989155 12.5343 1.01561C13.453 1.02442 14.001 1.732 14 2.59387C14 4.05365 14 5.51453 14 6.97377C14 7.34188 13.9091 7.43832 13.5592 7.43942C12.9853 7.43942 12.4114 7.43942 11.7995 7.43942V7.77667C11.7995 9.13598 11.7995 10.4953 11.7995 11.8546C11.7995 13.2179 11.0682 14.0038 9.81073 13.9999C7.46682 13.9999 5.12308 13.9999 2.77951 13.9999C2.54657 14.0025 2.31547 13.9549 2.09962 13.8599C1.88377 13.7648 1.68747 13.6242 1.52211 13.4461C1.35675 13.2681 1.22563 13.0562 1.13635 12.8227C1.04707 12.5892 1.00141 12.3388 1.00203 12.086C0.999323 11.6452 0.999323 11.2043 1.00203 10.7635C1.00203 10.4681 1.097 10.3661 1.36667 10.3639C1.83491 10.3617 2.30873 10.3667 2.82217 10.3667ZM3.38487 10.3667H8.32272C8.75287 10.3667 8.8128 10.4339 8.81381 10.9128C8.81381 11.3167 8.8067 11.7212 8.81788 12.1252C8.84174 12.9771 9.62638 13.5717 10.3755 13.3127C10.9184 13.1248 11.2144 12.6448 11.2144 11.935C11.2144 9.12459 11.2119 6.31414 11.218 3.50644C11.218 2.88263 11.1225 2.23898 11.4821 1.64603C11.3653 1.63887 11.2916 1.6306 11.218 1.6306H4.36198C4.30256 1.6306 4.24314 1.6306 4.18423 1.63556C3.70533 1.6824 3.43617 1.99596 3.43261 2.52113C3.41467 5.03657 3.39774 7.55312 3.38183 10.0708C3.38437 10.1529 3.38487 10.2427 3.38487 10.3667ZM8.23385 10.9999H1.56118C1.56118 11.3448 1.55864 11.6661 1.56118 11.9868C1.56981 12.8449 2.06243 13.3766 2.84909 13.3766C4.69361 13.3766 6.5388 13.3766 8.38468 13.3766H8.71935C8.09469 12.6514 8.27701 11.8083 8.23385 10.9999ZM13.4337 6.79136V5.34701C13.4337 4.43885 13.4398 3.52848 13.4337 2.62252C13.4276 1.91826 12.8573 1.46969 12.3022 1.72979C11.9569 1.89125 11.798 2.19545 11.7985 2.60324C11.7985 3.94233 11.7985 5.28162 11.7985 6.62108C11.7985 6.67619 11.8081 6.72634 11.8142 6.79136H13.4337Z" stroke="#535358" stroke-width="0.2" stroke-miterlimit="10"/>
<path d="M7.14146 6.56708C6.33753 6.56708 5.5341 6.56708 4.73017 6.56708C4.53364 6.56708 4.38636 6.49709 4.38382 6.26619C4.38128 6.03529 4.51941 5.95319 4.72002 5.95374C5.33756 5.95704 5.95511 5.95374 6.57266 5.95374C7.58837 5.95374 8.60407 5.94878 9.61977 5.96145C9.73928 5.97325 9.8501 6.03416 9.92956 6.13173C9.97375 6.18684 9.96257 6.3742 9.91179 6.4238C9.81787 6.50777 9.70079 6.55529 9.57915 6.55881C8.76607 6.57259 7.95351 6.56763 7.14146 6.56708Z" stroke="#535358" stroke-width="0.2" stroke-miterlimit="10"/>
<path d="M7.16736 8.77576C6.36343 8.77576 5.56 8.77852 4.75607 8.77246C4.66009 8.77246 4.53211 8.75703 4.47726 8.69145C4.42242 8.62587 4.37569 8.45835 4.40972 8.37679C4.43695 8.32436 4.47443 8.27903 4.51952 8.244C4.56462 8.20896 4.61624 8.18507 4.67075 8.17399C4.89573 8.14369 5.12782 8.16352 5.35483 8.16297H9.49179C9.55934 8.16297 9.64415 8.13542 9.69087 8.17069C9.79701 8.25335 9.9448 8.35419 9.96257 8.46882C9.99101 8.64461 9.86608 8.77135 9.68021 8.77301C9.42628 8.77301 9.17236 8.77301 8.91843 8.77301L7.16736 8.77576Z" stroke="#535358" stroke-width="0.2" stroke-miterlimit="10"/>
<path d="M6.02469 3.74781C6.4391 3.74781 6.8535 3.75277 7.26791 3.74781C7.47613 3.74395 7.63712 3.8222 7.63255 4.05971C7.62798 4.29722 7.4614 4.36445 7.25674 4.36335C6.42792 4.35839 5.5986 4.36335 4.76826 4.36335C4.50418 4.36335 4.36807 4.25314 4.38026 4.04979C4.39448 3.7963 4.55496 3.74836 4.75455 3.75111C5.17911 3.75387 5.60216 3.74781 6.02469 3.74781Z" stroke="#535358" stroke-width="0.2" stroke-miterlimit="10"/>
</svg>
