<svg width="13" height="13" viewBox="0 0 13 13" fill="none" xmlns="http://www.w3.org/2000/svg">
<path d="M9.93917 12.2219C10.235 12.2854 10.3678 12.4373 10.3388 12.6653C10.316 12.8463 10.1756 12.9814 9.9935 12.9966C9.96837 12.9987 9.94272 12.9979 9.91733 12.9979C7.63639 12.9979 5.35545 12.9982 3.07476 12.9977C2.78047 12.9977 2.59485 12.7752 2.6657 12.5109C2.70556 12.3618 2.81678 12.277 3.06663 12.2169C3.06663 11.9739 3.05546 11.7245 3.06866 11.4767C3.10472 10.802 3.69584 10.2267 4.36999 10.2046C4.60613 10.1969 4.84279 10.2033 5.08934 10.2033C5.0934 10.1543 5.09924 10.118 5.09924 10.0819C5.09975 9.59109 5.09797 9.10027 5.10127 8.60919C5.10178 8.53226 5.07233 8.49189 5.01342 8.44516C4.78896 8.26666 4.57389 8.07597 4.35044 7.89594C4.29509 7.85125 4.22323 7.80783 4.15518 7.80097C3.23904 7.7088 2.49405 7.27892 1.87601 6.62305C0.871006 5.55634 0.349967 4.25705 0.129059 2.82901C0.0556765 2.3547 0.0320621 1.87149 0.00159202 1.39133C-0.0177057 1.08536 0.138961 0.937581 0.442901 0.937328C0.963432 0.93682 1.48396 0.936566 2.00449 0.935804C2.01262 0.935804 2.021 0.932249 2.03573 0.928694C2.03573 0.76314 2.03547 0.595554 2.03573 0.428223C2.03598 0.207822 2.14034 0.0580107 2.33154 0.0100203C2.37572 -0.00115209 2.42346 -0.00165993 2.46967 -0.00165993C5.15688 -0.00191384 7.84384 -0.00216776 10.531 -0.00165993C10.8068 -0.00165993 10.9614 0.156531 10.9607 0.433047C10.9602 0.593523 10.9607 0.753999 10.9607 0.931487C10.9957 0.933265 11.0399 0.937074 11.0841 0.937074C11.5792 0.937581 12.0744 0.93682 12.5695 0.937581C12.8488 0.937835 13.0014 1.09019 12.9976 1.3695C12.9819 2.56849 12.7808 3.73144 12.292 4.83242C11.8669 5.7902 11.2867 6.6327 10.4026 7.22991C9.93358 7.5468 9.41838 7.74511 8.85037 7.80047C8.77851 7.80758 8.70208 7.85176 8.64342 7.89848C8.41591 8.08003 8.19348 8.26793 7.97232 8.45735C7.93855 8.4863 7.90021 8.5348 7.89995 8.57441C7.89538 9.099 7.89741 9.62385 7.89818 10.1484C7.89818 10.1601 7.90478 10.1718 7.91316 10.2C8.12442 10.2 8.33923 10.1952 8.55354 10.201C9.24216 10.2193 9.77945 10.6669 9.91174 11.3419C9.94145 11.4937 9.93409 11.6534 9.93866 11.8096C9.94247 11.9449 9.93917 12.0802 9.93917 12.2219ZM2.81221 0.766441C2.81221 0.810369 2.8117 0.839823 2.81221 0.869278C2.8315 1.67343 2.91707 2.47074 3.07044 3.26042C3.27434 4.30986 3.59021 5.32122 4.10744 6.26173C4.42788 6.84447 4.81206 7.3782 5.36535 7.76619C5.96332 8.18541 6.60116 8.2885 7.27862 7.97085C7.7994 7.72683 8.18358 7.32513 8.50936 6.86427C9.22159 5.85673 9.62101 4.71664 9.86807 3.52297C9.99782 2.89605 10.0659 2.25592 10.1461 1.61986C10.1814 1.34055 10.1773 1.05641 10.1916 0.766441C7.72526 0.766441 5.27343 0.766441 2.81221 0.766441ZM9.16345 12.2326C9.16345 11.9721 9.18224 11.7215 9.15862 11.4752C9.12968 11.1748 8.8458 10.964 8.50225 10.963C7.71536 10.9605 6.92872 10.9617 6.14183 10.9622C5.5667 10.9628 4.99133 10.9605 4.4162 10.9673C4.16736 10.9701 3.933 11.143 3.8619 11.3797C3.77811 11.6585 3.83346 11.9454 3.81848 12.2329C5.61317 12.2326 7.38425 12.2326 9.16345 12.2326ZM0.762837 1.70314C0.786959 1.9464 0.806765 2.17772 0.833426 2.40802C0.938548 3.31374 1.19018 4.17554 1.6226 4.9802C1.93797 5.56675 2.33383 6.08957 2.87238 6.49228C3.08441 6.65073 3.30912 6.78734 3.57853 6.88103C2.64589 5.26764 2.25054 3.51916 2.08879 1.70289C1.6452 1.70314 1.21481 1.70314 0.762837 1.70314ZM12.2272 1.70568C11.7859 1.70568 11.3522 1.70568 10.9068 1.70568C10.7456 3.52119 10.349 5.26865 9.41584 6.88484C9.46713 6.86478 9.49735 6.85437 9.5268 6.84142C10.1205 6.5809 10.5808 6.15787 10.9553 5.64039C11.8032 4.46983 12.1485 3.13473 12.2272 1.70568ZM7.12576 10.1934C7.12576 9.73405 7.12576 9.28893 7.12576 8.83544C6.70197 8.94386 6.28605 8.937 5.87141 8.83848C5.87141 9.29833 5.87141 9.7437 5.87141 10.1934C6.29291 10.1934 6.70502 10.1934 7.12576 10.1934Z" fill="#535358"/>
</svg>
