<svg width="13" height="13" viewBox="0 0 13 13" fill="black" xmlns="http://www.w3.org/2000/svg">
<path d="M12.5966 7.51828C12.4453 7.39128 12.2851 7.27392 12.1306 7.14997C11.6388 6.75575 11.643 6.23656 12.14 5.84184C12.3018 5.71331 12.4689 5.59088 12.6244 5.45575C13.015 5.11639 13.114 4.63581 12.8611 4.19435C12.494 3.55375 12.1159 2.91873 11.7263 2.29083C11.4728 1.88188 10.9916 1.72388 10.5229 1.87222C10.2679 1.953 10.0202 2.05663 9.7636 2.13334C9.28968 2.27508 8.8388 2.00126 8.75187 1.5283C8.71364 1.32103 8.67961 1.11274 8.64557 0.904459C8.55654 0.351741 8.14337 0.00324384 7.56681 0.0017198C6.85149 -0.000312249 6.13668 -0.000820262 5.42135 0.0017198C4.86103 0.00375185 4.44471 0.354281 4.35569 0.890742C4.32008 1.10716 4.28813 1.32459 4.24676 1.53998C4.15879 2.00024 3.71158 2.27203 3.25075 2.13639C3.01091 2.06578 2.77945 1.96722 2.54223 1.88696C2.01699 1.70966 1.52003 1.87934 1.2383 2.34264C0.872255 2.94464 0.511972 3.5507 0.15902 4.16031C-0.116429 4.63531 -0.0205976 5.12503 0.404096 5.48166C0.549152 5.60307 0.701015 5.71687 0.849737 5.83422C1.37026 6.24672 1.3666 6.7588 0.840311 7.17334C0.684782 7.29577 0.525587 7.41464 0.376342 7.54419C-0.0143136 7.88303 -0.113287 8.36412 0.139644 8.80558C0.507259 9.44619 0.885346 10.0812 1.27443 10.7091C1.52736 11.1175 2.00756 11.275 2.47782 11.1272C2.73337 11.0469 2.98106 10.9433 3.23713 10.8661C3.71001 10.7243 4.16141 10.9982 4.24834 11.4716C4.28656 11.6789 4.3206 11.8872 4.35412 12.0955C4.44262 12.6467 4.85684 12.9952 5.43339 12.9987C5.78216 13.0008 6.13092 12.9992 6.4802 12.9992C6.84677 12.9992 7.21281 13.0013 7.57938 12.9987C8.13971 12.9947 8.55497 12.6462 8.64452 12.1092C8.68065 11.8928 8.7126 11.6759 8.75344 11.46C8.8409 10.9997 9.28916 10.7279 9.74946 10.8635C9.9893 10.9342 10.2208 11.0332 10.458 11.113C10.9832 11.2898 11.4797 11.1216 11.7619 10.6573C12.1285 10.0553 12.4888 9.44924 12.8417 8.83962C13.1172 8.36361 13.0213 7.8749 12.5966 7.51828ZM11.8661 8.45455C11.5472 8.97628 11.2351 9.50156 10.9293 10.0304C10.8633 10.1447 10.8046 10.1589 10.6837 10.1097C10.4522 10.0152 10.2176 9.92067 9.97516 9.86123C8.91421 9.60164 7.87997 10.2798 7.70559 11.334C7.6705 11.5478 7.71973 11.8379 7.55948 11.9507C7.41547 12.0523 7.14055 11.9822 6.92323 11.9832C6.48701 11.9852 6.0508 11.9715 5.61563 11.9893C5.42763 11.9969 5.37841 11.9222 5.35694 11.7693C5.32866 11.5692 5.29829 11.368 5.24959 11.1719C4.99666 10.1508 3.9399 9.57726 2.91037 9.8968C2.88575 9.90442 2.85905 9.90746 2.83443 9.91559C2.60716 9.98925 2.35161 10.2006 2.16571 10.1137C1.98348 10.0289 1.9044 9.73474 1.78239 9.53153C1.56821 9.17491 1.35822 8.81574 1.14037 8.46166C1.0791 8.36158 1.05711 8.29706 1.17912 8.21781C1.33046 8.11977 1.46505 7.99683 1.60225 7.87948C2.515 7.09815 2.51343 5.89772 1.5991 5.11893C1.48128 5.01835 1.36764 4.91014 1.2362 4.82937C1.0791 4.73234 1.06601 4.64597 1.16394 4.48951C1.47081 4.00029 1.75935 3.5004 2.05627 3.0056C2.09292 2.94413 2.1123 2.86234 2.19294 2.84761C2.4176 2.93092 2.62654 3.01424 2.83915 3.08637C3.83988 3.42725 4.91968 2.91517 5.22079 1.9469C5.29305 1.71474 5.3229 1.46886 5.35694 1.22705C5.37998 1.06702 5.44282 1.0086 5.62087 1.01267C6.20476 1.02587 6.78969 1.03095 7.37306 1.01013C7.58095 1.00251 7.62023 1.09192 7.64484 1.24584C7.67678 1.44549 7.70454 1.64717 7.75324 1.84327C8.00093 2.83643 9.04827 3.41455 10.0537 3.11381C10.2689 3.04929 10.4831 2.97868 10.6884 2.89028C10.8162 2.83491 10.8691 2.86844 10.9319 2.97563C11.2393 3.50345 11.5524 4.02874 11.8687 4.55148C11.9263 4.64648 11.9389 4.70236 11.8316 4.77704C11.6619 4.89439 11.5043 5.02952 11.3493 5.16567C10.5025 5.90839 10.5046 7.09561 11.3529 7.84087C11.5011 7.97143 11.6525 8.10046 11.8143 8.21426C11.9206 8.2869 11.9347 8.34278 11.8661 8.45455Z" fill="#535358"/>
<path d="M6.49749 4.0008C5.06945 4.00232 3.93204 5.09963 3.92366 6.48346C3.91528 7.87948 5.05216 8.99406 6.49015 8.99914C7.92867 9.00422 9.07445 7.89827 9.07602 6.50327C9.07812 5.10776 7.936 3.99927 6.49749 4.0008ZM6.49853 7.98006C5.63762 7.97955 4.9689 7.32371 4.97414 6.48549C4.97885 5.66251 5.64967 5.01835 6.50168 5.01886C7.36311 5.01936 8.03131 5.67419 8.02607 6.51343C8.02136 7.33692 7.35054 7.98057 6.49853 7.98006Z" fill="#535358"/>
</svg>
