<svg width="13" height="10" viewBox="0 0 13 10" fill="none" xmlns="http://www.w3.org/2000/svg">
<path d="M6.47289 9.99963C4.99382 9.99963 3.51418 10.0008 2.03511 9.99906C0.885219 9.99792 0.0209652 9.16546 0.0130466 8.00854C-0.00109366 6.00211 -0.00109366 3.99511 0.0130466 1.98867C0.0209652 0.832888 0.885784 0.000994408 2.0368 0.000426175C5.01418 -0.000142058 7.99155 -0.000142058 10.9689 0.000426175C12.1194 0.000994408 12.9825 0.831183 12.991 1.99038C13.0063 3.99681 13.0063 6.00381 12.991 8.01024C12.9819 9.16887 12.1182 9.99849 10.9672 9.99906C9.46893 10.0008 7.97119 9.99963 6.47289 9.99963ZM6.51474 3.9326C4.75343 3.9326 2.99212 3.93715 1.23024 3.92749C0.990988 3.92635 0.905015 3.97579 0.908409 4.23717C0.923114 5.44808 0.913499 6.65955 0.915196 7.87103C0.916893 8.67337 1.33714 9.09159 2.13748 9.09159C5.04811 9.09216 7.95875 9.09216 10.8694 9.09159C11.6686 9.09159 12.0877 8.67224 12.0888 7.86819C12.0905 6.66637 12.0826 5.46456 12.0945 4.26274C12.0968 4.01102 12.0402 3.92408 11.771 3.92578C10.0187 3.93885 8.26701 3.9326 6.51474 3.9326ZM12.0888 3.00979C12.0888 2.6751 12.0917 2.37394 12.0883 2.07277C12.0792 1.34146 11.6471 0.9096 10.9242 0.908463C9.80377 0.906758 8.68273 0.907895 7.56225 0.907895C5.71667 0.907895 3.87051 0.906758 2.02492 0.909031C1.50682 0.9096 1.05038 1.21304 0.973454 1.67956C0.902187 2.11084 0.919721 2.55634 0.897096 3.00979C4.65219 3.00979 8.35072 3.00979 12.0888 3.00979Z" fill="#253D98"/>
<path d="M9.81395 6.65728C9.6075 6.65671 9.40049 6.66467 9.19404 6.65501C8.94121 6.64307 8.79246 6.4942 8.7704 6.24815C8.74778 5.99756 8.88409 5.79698 9.12278 5.7805C9.58884 5.74868 10.06 5.74981 10.5255 5.78334C10.771 5.80095 10.8869 6.00779 10.862 6.25838C10.8371 6.51068 10.6839 6.64648 10.4333 6.65614C10.2274 6.66467 10.0204 6.65785 9.81395 6.65728Z" fill="#253D98"/>
</svg>
